<svg width="231" height="140" viewBox="0 0 231 140" fill="none" xmlns="http://www.w3.org/2000/svg">
<path d="M56.0037 117.691C54.3523 117.699 52.728 117.271 51.2955 116.449C49.8629 115.628 48.6731 114.442 47.8465 113.012C47.02 111.582 46.5861 109.96 46.5889 108.308C46.5916 106.657 47.031 105.035 47.8623 103.608C48.6936 102.181 49.8874 101 51.3227 100.183C52.758 99.3659 54.3837 98.943 56.0351 98.9569C57.6865 98.9708 59.3049 99.421 60.7262 100.262C62.1475 101.103 63.3212 102.305 64.1284 103.745C62.5514 104.574 62.4206 104.65 60.662 105.504C60.1872 104.69 59.5072 104.014 58.6898 103.545C57.8724 103.076 56.9463 102.829 56.0037 102.83C55.2716 102.811 54.5431 102.939 53.8611 103.206C53.1792 103.473 52.5576 103.874 52.0331 104.385C51.5086 104.897 51.0918 105.508 50.8071 106.182C50.5225 106.857 50.3759 107.582 50.3759 108.315C50.3759 109.047 50.5225 109.772 50.8071 110.447C51.0918 111.122 51.5086 111.733 52.0331 112.244C52.5576 112.755 53.1792 113.156 53.8611 113.423C54.5431 113.69 55.2716 113.818 56.0037 113.8C56.9918 113.808 57.9633 113.545 58.8118 113.039C59.6604 112.533 60.3532 111.803 60.8146 110.929C62.5769 111.834 62.6314 111.939 64.2846 112.688C63.4967 114.201 62.3072 115.469 60.8465 116.352C59.3858 117.234 57.7104 117.698 56.0037 117.691Z" fill="#1C33FF"/>
<path d="M80.2729 109.733H71.6141V117.691H67.6172V98.96H71.6141V105.737H80.2729V99.0108H84.2989V117.691H80.2729V109.733Z" fill="#1C33FF"/>
<path d="M126.971 104.821V117.691H123.399V99.0109H128.09L136.4 110.638V99.0109H139.867V117.691H136.4L126.971 104.821Z" fill="#1C33FF"/>
<path d="M143.071 99.0654H147.159V117.666H143.071V99.0654Z" fill="#1C33FF"/>
<path d="M160.487 117.691H155.854L149.786 99.0109H154.023L158.183 112.146H158.238L162.449 99.0109H166.689L160.487 117.691Z" fill="#1C33FF"/>
<path d="M175.011 117.691C173.163 117.689 171.357 117.139 169.822 116.11C168.287 115.082 167.091 113.621 166.386 111.913C165.681 110.205 165.499 108.326 165.862 106.515C166.224 104.703 167.116 103.039 168.425 101.734C169.733 100.43 171.399 99.5421 173.212 99.1841C175.025 98.8262 176.903 99.0139 178.609 99.7235C180.315 100.433 181.773 101.633 182.797 103.171C183.821 104.709 184.366 106.516 184.363 108.364C184.364 109.591 184.123 110.806 183.653 111.94C183.183 113.074 182.494 114.104 181.625 114.97C180.756 115.837 179.724 116.523 178.589 116.99C177.454 117.457 176.238 117.695 175.011 117.691ZM169.502 108.364C169.512 109.446 169.841 110.501 170.448 111.397C171.056 112.292 171.915 112.988 172.917 113.397C173.919 113.805 175.019 113.909 176.08 113.693C177.141 113.478 178.114 112.954 178.877 112.187C179.641 111.42 180.16 110.444 180.371 109.383C180.581 108.321 180.473 107.221 180.059 106.221C179.646 105.221 178.946 104.365 178.048 103.762C177.15 103.158 176.093 102.834 175.011 102.83C173.549 102.842 172.151 103.43 171.12 104.466C170.089 105.502 169.508 106.902 169.502 108.364Z" fill="#1C33FF"/>
<path d="M94.3239 91.1515H117.055C117.875 91.1515 118.66 91.4769 119.239 92.0561C119.819 92.6353 120.144 93.4209 120.144 94.24V116.972C120.144 118.748 119.438 120.451 118.183 121.707C116.927 122.963 115.223 123.668 113.447 123.668H90.7194C89.9003 123.668 89.1147 123.343 88.5355 122.764C87.9563 122.184 87.6309 121.399 87.6309 120.58V97.8445C87.6309 96.0684 88.3364 94.3651 89.5923 93.1092C90.8481 91.8534 92.5515 91.1478 94.3275 91.1478L94.3239 91.1515Z" fill="url(#paint0_linear_25891_144269)"/>
<path d="M90.4062 117.655L98.8724 99.0254H103L111.332 117.655H107.364L105.547 113.527H96.1L94.1416 117.655H90.4062ZM100.987 102.525L97.8514 109.733H104.028L101.013 102.525H100.987Z" fill="white"/>
<path d="M113.266 99H117.364V117.655H113.266V99Z" fill="white"/>
<path d="M115.5 86.4533C135.096 86.4533 150.982 70.5676 150.982 50.9716C150.982 31.3756 135.096 15.4899 115.5 15.4899C95.9043 15.4899 80.0186 31.3756 80.0186 50.9716C80.0186 70.5676 95.9043 86.4533 115.5 86.4533Z" fill="#1C33FF"/>
<path d="M97.5468 53.6168H94.56C94.6927 53.945 94.7046 54.3096 94.5934 54.6457C94.4823 54.9818 94.2554 55.2674 93.9532 55.4518C93.7119 55.6251 93.4212 55.7162 93.1242 55.7116C92.8271 55.7071 92.5394 55.607 92.3036 55.4263C92.0143 55.2395 91.7989 54.958 91.6942 54.6299C91.5895 54.3018 91.6019 53.9476 91.7295 53.6277C91.4867 53.6276 91.2441 53.6143 91.0027 53.5877C90.6421 53.5343 90.3121 53.3545 90.0718 53.0802C89.8315 52.806 89.6966 52.4553 89.691 52.0907C89.6846 51.7272 89.8058 51.3729 90.0335 51.0895C90.2612 50.8061 90.581 50.6113 90.9373 50.5392L91.1372 50.4992C91.1008 50.1976 91.0645 49.8997 91.0245 49.6017L90.534 45.841C90.3996 44.8272 90.2724 43.8098 90.1271 42.7961C90.0853 42.5084 89.9416 42.2453 89.7222 42.0546C89.5029 41.8638 89.2223 41.7582 88.9316 41.7569C88.4265 41.7569 87.9251 41.7569 87.4237 41.7569C87.3436 41.7609 87.2639 41.7444 87.1919 41.7091C87.12 41.6738 87.0582 41.6208 87.0124 41.555C86.9666 41.4892 86.9383 41.4128 86.9302 41.3331C86.922 41.2534 86.9343 41.1729 86.9659 41.0992C86.9923 41.0224 87.041 40.9551 87.1056 40.906C87.1703 40.8568 87.2481 40.828 87.3292 40.823C87.9616 40.8012 88.5947 40.8121 89.2259 40.8558C89.6911 40.9186 90.1227 41.1326 90.4542 41.4648C90.7858 41.797 90.999 42.2291 91.0609 42.6943C91.0827 42.8578 91.1081 43.025 91.1226 43.1921C91.1226 43.283 91.1699 43.3229 91.2607 43.312H101.882C101.981 43.3099 102.08 43.3209 102.176 43.3447C102.281 43.3819 102.369 43.4555 102.425 43.5522C102.48 43.6489 102.499 43.7622 102.478 43.8716C102.255 45.262 102.032 46.6537 101.809 48.0466C101.754 48.4099 101.696 48.7406 101.642 49.0858C101.593 49.5187 101.391 49.9197 101.071 50.2159C100.752 50.512 100.337 50.6835 99.9013 50.6991L94.887 51.1351L91.2135 51.4548C91.1295 51.4529 91.046 51.4682 90.9682 51.4998C90.8904 51.5314 90.8199 51.5786 90.761 51.6385C90.7022 51.6984 90.6563 51.7698 90.6261 51.8482C90.5959 51.9266 90.5822 52.0103 90.5857 52.0942C90.5891 52.1782 90.6098 52.2605 90.6464 52.3361C90.6829 52.4117 90.7346 52.479 90.7982 52.5339C90.8618 52.5887 90.936 52.6299 91.0162 52.6549C91.0964 52.68 91.1808 52.6883 91.2644 52.6794H96.7147C97.4414 52.6794 98.1899 52.6794 98.9239 52.6794C99.2689 52.6764 99.6044 52.7918 99.8746 53.0064C100.145 53.2209 100.333 53.5217 100.408 53.8583C100.484 54.195 100.441 54.5473 100.288 54.8565C100.135 55.1656 99.8805 55.4129 99.567 55.5571C99.3085 55.6754 99.0219 55.7182 98.7402 55.6805C98.4584 55.6429 98.193 55.5264 97.9746 55.3445C97.7562 55.1625 97.5937 54.9226 97.5058 54.6522C97.4179 54.3819 97.4081 54.0923 97.4777 53.8167C97.5141 53.744 97.5286 53.6895 97.5468 53.6168ZM94.2984 48.5298C94.2003 47.487 94.1022 46.4369 94.0004 45.3868C93.9974 45.3227 93.9812 45.2599 93.9527 45.2023C93.9243 45.1448 93.8842 45.0937 93.835 45.0524C93.7859 45.0111 93.7287 44.9805 93.6671 44.9623C93.6056 44.9442 93.5409 44.939 93.4772 44.9471C93.4136 44.9555 93.3523 44.9766 93.297 45.0092C93.2417 45.0417 93.1934 45.085 93.1551 45.1365C93.1168 45.188 93.0893 45.2466 93.0741 45.309C93.0589 45.3713 93.0563 45.4361 93.0666 45.4994C93.0957 45.7792 93.1211 46.0626 93.1465 46.3424C93.2192 47.0946 93.2883 47.8504 93.3646 48.6025C93.3695 48.6642 93.3868 48.7243 93.4155 48.7791C93.4442 48.834 93.4836 48.8825 93.5314 48.9219C93.5792 48.9612 93.6344 48.9905 93.6937 49.0081C93.7531 49.0256 93.8154 49.031 93.8769 49.024C93.9934 49.009 94.1005 48.952 94.1781 48.8637C94.2557 48.7754 94.2985 48.6619 94.2984 48.5444V48.5298ZM98.5169 48.5298C98.5138 48.6509 98.5573 48.7686 98.6384 48.8586C98.7196 48.9485 98.8322 49.0038 98.953 49.0131C99.0144 49.018 99.0761 49.0108 99.1347 48.9916C99.1933 48.9725 99.2474 48.942 99.2941 48.9017C99.3407 48.8615 99.3789 48.8124 99.4065 48.7573C99.434 48.7022 99.4503 48.6422 99.4544 48.5807C99.5537 47.5488 99.6506 46.5193 99.7451 45.4922C99.7565 45.429 99.755 45.3643 99.7407 45.3017C99.7264 45.2392 99.6996 45.1802 99.6619 45.1282C99.6242 45.0763 99.5765 45.0325 99.5215 44.9995C99.4664 44.9666 99.4053 44.945 99.3418 44.9362C99.2756 44.9299 99.2088 44.9379 99.1459 44.9596C99.0831 44.9813 99.0256 45.0163 98.9774 45.0621C98.9292 45.1079 98.8913 45.1635 98.8665 45.2251C98.8416 45.2868 98.8302 45.3531 98.8331 45.4195C98.7931 45.7611 98.764 46.1062 98.7313 46.4478C98.6514 47.1309 98.586 47.8322 98.5169 48.5553V48.5298ZM96.8782 46.9856C96.8782 46.4805 96.8782 45.9718 96.8782 45.4667C96.8839 45.4015 96.876 45.3357 96.855 45.2737C96.834 45.2116 96.8003 45.1546 96.756 45.1063C96.7117 45.058 96.6579 45.0194 96.598 44.993C96.538 44.9666 96.4732 44.953 96.4077 44.953C96.3421 44.953 96.2773 44.9666 96.2174 44.993C96.1574 45.0194 96.1036 45.058 96.0593 45.1063C96.0151 45.1546 95.9814 45.2116 95.9603 45.2737C95.9393 45.3357 95.9314 45.4015 95.9371 45.4667C95.9371 46.4744 95.9371 47.4834 95.9371 48.4935C95.9299 48.5502 95.9299 48.6076 95.9371 48.6643C95.9654 48.7756 96.0337 48.8727 96.1289 48.9371C96.2241 49.0014 96.3397 49.0286 96.4536 49.0133C96.5675 48.9981 96.6718 48.9415 96.7467 48.8544C96.8217 48.7673 96.862 48.6556 96.86 48.5407C96.8818 48.0466 96.8782 47.5306 96.8782 47.011V46.9856ZM92.5797 54.1546C92.579 54.267 92.6117 54.3771 92.6737 54.4709C92.7357 54.5646 92.8242 54.6378 92.9279 54.6812C93.0317 54.7245 93.1459 54.7361 93.2562 54.7143C93.3665 54.6926 93.4679 54.6385 93.5473 54.559C93.6268 54.4795 93.6809 54.3782 93.7026 54.2679C93.7244 54.1576 93.7129 54.0433 93.6695 53.9396C93.6262 53.8359 93.553 53.7474 93.4592 53.6854C93.3654 53.6234 93.2553 53.5907 93.1429 53.5914C93.0668 53.5913 92.9914 53.6067 92.9213 53.6365C92.8513 53.6664 92.788 53.7102 92.7354 53.7652C92.6828 53.8203 92.6418 53.8854 92.615 53.9567C92.5883 54.028 92.5763 54.1039 92.5797 54.18V54.1546ZM99.5343 54.1546C99.5343 54.0033 99.4742 53.8582 99.3673 53.7512C99.2603 53.6442 99.1152 53.5841 98.9639 53.5841C98.8126 53.5841 98.6675 53.6442 98.5605 53.7512C98.4535 53.8582 98.3934 54.0033 98.3934 54.1546C98.3934 54.3059 98.4535 54.451 98.5605 54.558C98.6675 54.665 98.8126 54.7251 98.9639 54.7251C99.1152 54.7251 99.2603 54.665 99.3673 54.558C99.4742 54.451 99.5343 54.3059 99.5343 54.1546Z" fill="white"/>
<path d="M100.569 74.1246L99.116 73.5324C98.8072 73.7504 98.4838 73.9866 98.1531 74.2118C98.0461 74.2939 97.9123 74.3331 97.7778 74.3217C97.6434 74.3103 97.5181 74.2491 97.4264 74.1501C97.1176 73.8485 96.816 73.5433 96.5144 73.238C96.4192 73.1437 96.3615 73.018 96.3522 72.8843C96.3428 72.7506 96.3824 72.618 96.4635 72.5113C96.6707 72.2134 96.8814 71.9191 97.0921 71.6247C97.1123 71.603 97.125 71.5754 97.1282 71.546C97.1315 71.5165 97.1252 71.4868 97.1103 71.4612C96.9359 71.0506 96.7651 70.6364 96.598 70.2222C96.5921 70.1927 96.5763 70.1661 96.5531 70.1469C96.53 70.1277 96.5009 70.1171 96.4708 70.1168C96.1075 70.0587 95.7441 69.9933 95.3589 69.9242C95.2309 69.904 95.1147 69.8379 95.0318 69.7383C94.9489 69.6387 94.905 69.5124 94.9084 69.3828C94.9084 68.9468 94.9084 68.5108 94.9084 68.0784C94.9053 67.9487 94.9498 67.8224 95.0334 67.7233C95.1171 67.6242 95.2342 67.5592 95.3626 67.5406C95.7623 67.4643 96.162 67.3989 96.5326 67.3335C96.7034 66.9229 96.8523 66.5232 97.0413 66.1381C97.0876 66.075 97.1097 65.9974 97.1037 65.9194C97.0977 65.8414 97.064 65.7682 97.0086 65.7129C96.816 65.4804 96.6452 65.2224 96.4781 64.9862C96.4302 64.9295 96.3939 64.8639 96.3715 64.7932C96.349 64.7224 96.3407 64.6479 96.3471 64.574C96.3535 64.5 96.3745 64.4281 96.4088 64.3623C96.4432 64.2965 96.4901 64.2381 96.5471 64.1905L97.3974 63.3402C97.4937 63.2289 97.6298 63.1598 97.7765 63.1475C97.9231 63.1353 98.0688 63.181 98.1822 63.2748L99.1342 63.9507C99.5596 63.7075 100.014 63.5183 100.486 63.3875C100.504 63.3764 100.52 63.3617 100.533 63.3442C100.545 63.3267 100.554 63.3068 100.559 63.2857C100.624 62.9224 100.682 62.559 100.748 62.1739C100.766 62.0426 100.832 61.9227 100.933 61.837C101.035 61.7513 101.164 61.7057 101.296 61.7088C101.725 61.7088 102.157 61.7088 102.586 61.7088C102.726 61.7045 102.862 61.7536 102.966 61.8461C103.071 61.9386 103.136 62.0675 103.149 62.2066C103.215 62.5917 103.284 62.9769 103.349 63.3584C103.593 63.4456 103.836 63.5219 104.076 63.62C104.316 63.7181 104.537 63.8344 104.77 63.9434L105.707 63.2785C105.764 63.2301 105.829 63.1934 105.9 63.1707C105.971 63.148 106.046 63.1395 106.12 63.146C106.194 63.1524 106.266 63.1735 106.332 63.2081C106.397 63.2427 106.456 63.2901 106.503 63.3475C106.786 63.6309 107.074 63.9107 107.353 64.1977C107.466 64.293 107.536 64.429 107.549 64.576C107.562 64.7229 107.517 64.8691 107.422 64.9826C107.201 65.2987 106.975 65.6112 106.747 65.9346C106.99 66.3596 107.18 66.8138 107.31 67.2863C107.319 67.3039 107.331 67.3193 107.347 67.3312C107.363 67.3432 107.381 67.3514 107.401 67.3553C107.764 67.4171 108.102 67.4789 108.454 67.5334C108.537 67.5377 108.618 67.559 108.692 67.596C108.766 67.6329 108.831 67.6847 108.885 67.7481C108.938 67.8115 108.977 67.8851 109.001 67.9644C109.024 68.0438 109.031 68.1271 109.021 68.2092C109.003 68.5907 109.021 68.9722 109.021 69.3574C109.032 69.499 108.988 69.6394 108.898 69.7492C108.808 69.859 108.679 69.9296 108.538 69.946C108.149 70.0187 107.757 70.0805 107.386 70.1459C107.263 70.519 107.115 70.8832 106.943 71.236C106.867 71.3331 106.831 71.4553 106.842 71.5781C106.852 71.7008 106.909 71.8148 107.001 71.8973C107.162 72.0959 107.313 72.3033 107.451 72.5186C107.499 72.5753 107.536 72.6409 107.558 72.7116C107.581 72.7824 107.589 72.8569 107.582 72.9308C107.576 73.0048 107.555 73.0767 107.521 73.1426C107.486 73.2084 107.439 73.2668 107.382 73.3144C107.099 73.6014 106.816 73.8848 106.529 74.1646C106.482 74.2204 106.424 74.2664 106.36 74.2999C106.295 74.3335 106.224 74.3539 106.152 74.3599C106.079 74.366 106.006 74.3577 105.936 74.3354C105.867 74.3131 105.803 74.2773 105.747 74.23L104.828 73.5796L103.375 74.1755C103.313 74.5171 103.251 74.9022 103.182 75.2656C103.159 75.4154 103.083 75.552 102.968 75.6502C102.852 75.7483 102.705 75.8014 102.553 75.7997C102.161 75.7997 101.769 75.7997 101.376 75.7997C101.234 75.8021 101.096 75.7553 100.985 75.6672C100.873 75.5791 100.796 75.4551 100.766 75.3164C100.697 74.884 100.649 74.488 100.569 74.1246ZM101.987 66.3197C101.51 66.319 101.044 66.4598 100.648 66.7241C100.252 66.9885 99.9429 67.3646 99.7606 67.8047C99.5783 68.2448 99.5308 68.7291 99.6241 69.1962C99.7174 69.6634 99.9473 70.0923 100.285 70.4286C100.622 70.7649 101.052 70.9935 101.519 71.0854C101.986 71.1773 102.471 71.1283 102.91 70.9447C103.35 70.7611 103.725 70.4511 103.988 70.054C104.251 69.6569 104.39 69.1906 104.388 68.7143C104.384 68.0794 104.129 67.472 103.679 67.0238C103.23 66.5756 102.621 66.3226 101.987 66.3197Z" fill="white"/>
<path d="M126.568 68.7543H128.937V71.0616C128.897 71.0616 128.853 71.0616 128.81 71.0616H127.033C126.931 71.0616 126.884 71.0398 126.851 70.9308C126.673 70.2469 126.575 69.5444 126.561 68.8378C126.561 68.8233 126.564 68.7942 126.568 68.7543Z" fill="white"/>
<path d="M131.561 68.7543C131.492 69.3102 131.433 69.8443 131.357 70.3857C131.324 70.5863 131.277 70.7842 131.215 70.978C131.206 71.0008 131.191 71.021 131.172 71.0369C131.153 71.0527 131.131 71.0637 131.106 71.0688H129.177C129.177 71.0688 129.159 71.0688 129.141 71.0688V68.7688L131.561 68.7543Z" fill="white"/>
<path d="M131.535 68.5507H129.155V66.2434C129.195 66.2434 129.239 66.2434 129.282 66.2434C129.875 66.2434 130.467 66.2434 131.059 66.2434C131.176 66.2434 131.216 66.2797 131.245 66.3888C131.421 67.0631 131.519 67.7557 131.535 68.4526V68.5507Z" fill="white"/>
<path d="M126.557 68.5508C126.563 67.7967 126.668 67.0466 126.869 66.3198C126.878 66.2991 126.891 66.2807 126.908 66.2662C126.925 66.2517 126.945 66.2414 126.967 66.2362H128.937V68.5544L126.557 68.5508Z" fill="white"/>
<path d="M126.641 71.0688H124.962C124.917 71.0742 124.872 71.0652 124.833 71.0429C124.793 71.0207 124.762 70.9865 124.744 70.9453C124.403 70.3002 124.207 69.5884 124.17 68.8596V68.7469H126.325L126.641 71.0688Z" fill="white"/>
<path d="M131.44 71.0688L131.76 68.7578H133.94C133.893 69.0812 133.86 69.4046 133.799 69.7207C133.708 70.1601 133.547 70.582 133.323 70.9707C133.307 70.9968 133.286 71.0192 133.261 71.0362C133.236 71.0531 133.207 71.0643 133.177 71.0688C132.61 71.0688 132.044 71.0688 131.477 71.0688H131.44Z" fill="white"/>
<path d="M126.644 66.2325L126.325 68.5544H124.145C124.17 68.3182 124.181 68.0857 124.217 67.8604C124.307 67.3331 124.481 66.8239 124.733 66.3525C124.749 66.3131 124.777 66.2797 124.813 66.2575C124.849 66.2352 124.891 66.2252 124.933 66.2289C125.464 66.2289 125.994 66.2289 126.525 66.2289L126.644 66.2325Z" fill="white"/>
<path d="M131.757 68.5471L131.44 66.2326H133.148C133.176 66.2315 133.204 66.2364 133.229 66.2471C133.255 66.2578 133.278 66.2739 133.297 66.2943C133.686 66.9809 133.896 67.7544 133.908 68.5435L131.757 68.5471Z" fill="white"/>
<path d="M126.942 71.265H128.941V73.5033C128.677 73.4799 128.425 73.383 128.214 73.2235C127.771 72.877 127.425 72.4213 127.211 71.9009C127.11 71.6974 127.033 71.4903 126.942 71.265Z" fill="white"/>
<path d="M129.141 73.496V71.265H131.135C130.926 72.0083 130.508 72.6756 129.929 73.1872C129.707 73.3728 129.43 73.4812 129.141 73.496Z" fill="white"/>
<path d="M128.944 63.8053V66.0399H126.949C127.159 65.2939 127.58 64.6249 128.163 64.1141C128.386 63.9346 128.658 63.8269 128.944 63.8053Z" fill="white"/>
<path d="M129.144 63.8053C129.487 63.8362 129.809 63.9852 130.056 64.2268C130.499 64.6569 130.834 65.1862 131.033 65.7711C131.066 65.8474 131.091 65.9237 131.117 66C131.117 66 131.117 66.0181 131.117 66.0399H129.144V63.8053Z" fill="white"/>
<path d="M125.184 63.8307C125.183 64.026 125.124 64.2167 125.015 64.3788C124.906 64.5409 124.752 64.667 124.571 64.7412C124.39 64.8155 124.192 64.8345 124 64.796C123.809 64.7574 123.633 64.663 123.495 64.5246C123.357 64.3863 123.264 64.2102 123.226 64.0186C123.188 63.8269 123.208 63.6284 123.283 63.448C123.358 63.2676 123.484 63.1135 123.647 63.0051C123.809 62.8966 124 62.8387 124.195 62.8387C124.325 62.8387 124.454 62.8644 124.574 62.9143C124.695 62.9642 124.804 63.0373 124.895 63.1295C124.987 63.2217 125.06 63.331 125.109 63.4514C125.159 63.5717 125.184 63.7006 125.184 63.8307Z" fill="white"/>
<path d="M134.874 63.8271C134.874 64.0225 134.816 64.2134 134.708 64.3758C134.599 64.5383 134.445 64.665 134.265 64.7399C134.084 64.8148 133.886 64.8346 133.694 64.7967C133.503 64.7589 133.327 64.6651 133.188 64.5273C133.05 64.3894 132.955 64.2136 132.917 64.0222C132.878 63.8307 132.897 63.6321 132.972 63.4514C133.046 63.2708 133.172 63.1162 133.334 63.0071C133.496 62.8981 133.687 62.8395 133.882 62.8388C134.013 62.8374 134.142 62.8619 134.263 62.911C134.383 62.9601 134.493 63.0328 134.586 63.1248C134.678 63.2168 134.751 63.3263 134.801 63.4469C134.85 63.5675 134.875 63.6968 134.874 63.8271Z" fill="white"/>
<path d="M134.874 73.4815C134.874 73.677 134.816 73.8681 134.708 74.0306C134.599 74.1931 134.445 74.3198 134.264 74.3946C134.083 74.4694 133.885 74.489 133.693 74.4508C133.501 74.4127 133.325 74.3186 133.187 74.1804C133.049 74.0421 132.955 73.866 132.916 73.6743C132.878 73.4826 132.898 73.2839 132.973 73.1033C133.047 72.9227 133.174 72.7683 133.337 72.6597C133.499 72.5511 133.69 72.4932 133.886 72.4932C134.016 72.4927 134.144 72.5179 134.265 72.5674C134.385 72.6169 134.494 72.6897 134.586 72.7816C134.678 72.8734 134.75 72.9826 134.8 73.1027C134.849 73.2228 134.875 73.3516 134.874 73.4815Z" fill="white"/>
<path d="M125.184 73.4779C125.184 73.6734 125.127 73.8647 125.019 74.0276C124.911 74.1905 124.757 74.3177 124.577 74.3932C124.397 74.4687 124.198 74.489 124.006 74.4516C123.814 74.4141 123.638 74.3206 123.499 74.1829C123.36 74.0452 123.266 73.8695 123.227 73.6779C123.188 73.4863 123.207 73.2875 123.281 73.1067C123.355 72.9258 123.481 72.771 123.643 72.6618C123.805 72.5526 123.996 72.4939 124.192 72.4932C124.322 72.4922 124.45 72.517 124.571 72.566C124.691 72.6151 124.801 72.6875 124.893 72.779C124.985 72.8706 125.058 72.9794 125.108 73.0994C125.158 73.2193 125.184 73.348 125.184 73.4779Z" fill="white"/>
<path d="M129.943 73.4161C130.348 73.1136 130.675 72.7203 130.899 72.2679C131.048 71.9772 131.161 71.672 131.288 71.3741C131.317 71.3014 131.339 71.2542 131.433 71.2542H133.075H133.119C132.872 72.0644 131.077 73.2962 129.943 73.4161Z" fill="white"/>
<path d="M128.011 73.398C127.124 73.3689 125.344 72.1589 124.951 71.2542H125.136C125.627 71.2542 126.118 71.2542 126.608 71.2542C126.652 71.2477 126.697 71.2584 126.734 71.2841C126.77 71.3098 126.795 71.3485 126.804 71.3922C126.989 71.9868 127.292 72.538 127.695 73.0128C127.822 73.1545 127.934 73.3071 128.011 73.398Z" fill="white"/>
<path d="M128.025 63.8998C127.938 64.0052 127.811 64.1614 127.662 64.314C127.27 64.7794 126.975 65.3179 126.793 65.8982C126.79 65.9223 126.781 65.9455 126.769 65.9664C126.756 65.9873 126.74 66.0056 126.72 66.0201C126.701 66.0346 126.679 66.0451 126.655 66.051C126.631 66.0569 126.607 66.0581 126.583 66.0545C126.038 66.0545 125.493 66.0545 124.911 66.0545C125.261 65.5064 125.716 65.0335 126.251 64.6635C126.786 64.2936 127.389 64.0339 128.025 63.8998Z" fill="white"/>
<path d="M133.145 66.0509H131.84C131.677 66.0509 131.477 66.1017 131.361 66.0291C131.244 65.9564 131.226 65.7493 131.164 65.6003C130.934 64.9529 130.533 64.3794 130.005 63.9398C129.987 63.932 129.97 63.9195 129.958 63.9034C130.609 64.0205 131.229 64.2719 131.777 64.6416C132.326 65.0113 132.792 65.4913 133.145 66.0509Z" fill="white"/>
<path d="M132.89 74.2555L133.079 74.459C131.895 75.2885 130.484 75.7335 129.039 75.7335C127.593 75.7335 126.182 75.2885 124.998 74.459L125.194 74.2555C127.756 75.8361 130.31 75.8397 132.89 74.2555Z" fill="white"/>
<path d="M134.856 72.6712L134.667 72.4641C136.201 69.9279 136.18 67.3953 134.605 64.8663L134.805 64.6774C135.634 65.843 136.084 67.2358 136.093 68.6663C136.102 70.0967 135.67 71.4951 134.856 72.6712Z" fill="white"/>
<path d="M123.436 72.4569L123.222 72.6604C122.41 71.4872 121.978 70.0928 121.985 68.6662C121.993 67.2396 122.438 65.8497 123.262 64.6847L123.49 64.8736C122.717 65.9844 122.298 67.3033 122.288 68.6568C122.278 70.0104 122.678 71.3351 123.436 72.4569Z" fill="white"/>
<path d="M133.018 62.9114L132.836 63.1186C130.292 61.5888 127.785 61.5925 125.245 63.1186L125.067 62.9151C126.237 62.1104 127.623 61.6792 129.042 61.6786C130.461 61.6779 131.848 62.1078 133.018 62.9114Z" fill="white"/>
<path d="M140.863 44.0279H141.186C142.211 44.0279 143.236 44.0279 144.257 44.0279C144.419 44.0146 144.58 44.0561 144.716 44.1457C144.852 44.2353 144.954 44.3678 145.005 44.522C145.459 45.5794 145.924 46.6331 146.371 47.6941C146.437 47.8602 146.461 48.0399 146.44 48.2174C146.295 49.6708 146.131 51.1242 145.982 52.5776C145.917 53.1953 145.714 53.3952 145.103 53.3952C144.791 53.3952 144.478 53.3952 144.162 53.3952C144.11 53.3885 144.056 53.4005 144.012 53.4291C143.967 53.4576 143.934 53.5009 143.919 53.5514C143.788 53.8456 143.587 54.1033 143.333 54.3022C143.08 54.501 142.782 54.635 142.465 54.6924C142.058 54.78 141.632 54.7119 141.272 54.5014C140.912 54.2909 140.645 53.9533 140.521 53.5551C140.521 53.5078 140.489 53.4606 140.467 53.3988H140.271C138.734 53.3988 137.2 53.3988 135.663 53.3988C135.605 53.3917 135.545 53.4053 135.496 53.4371C135.446 53.4689 135.409 53.517 135.391 53.5732C135.287 53.8092 135.137 54.0218 134.949 54.1983C134.761 54.3749 134.54 54.5117 134.298 54.6006C134.056 54.6895 133.799 54.7286 133.541 54.7157C133.284 54.7027 133.032 54.6379 132.8 54.5252C132.591 54.4041 132.408 54.2424 132.262 54.0496C132.116 53.8568 132.01 53.6368 131.95 53.4024H130.133C130.005 53.4095 129.877 53.3789 129.766 53.3143C129.655 53.2498 129.565 53.1541 129.508 53.0391C129.455 52.9414 129.428 52.832 129.429 52.721C129.43 52.61 129.458 52.501 129.512 52.404C129.566 52.307 129.643 52.2251 129.737 52.1659C129.831 52.1067 129.939 52.0721 130.049 52.0653C130.275 52.0653 130.5 52.0653 130.725 52.0653C130.902 52.0653 131.073 51.9949 131.198 51.8695C131.323 51.7441 131.394 51.574 131.394 51.3967C131.394 51.2194 131.323 51.0493 131.198 50.924C131.073 50.7986 130.902 50.7281 130.725 50.7281C130.307 50.7281 129.889 50.7281 129.475 50.7281C129.298 50.7281 129.128 50.6577 129.002 50.5323C128.877 50.4069 128.807 50.2369 128.807 50.0596C128.807 49.8823 128.877 49.7122 129.002 49.5868C129.128 49.4614 129.298 49.391 129.475 49.391H134.617C134.729 49.3982 134.842 49.3766 134.944 49.3284C135.045 49.2802 135.133 49.2069 135.199 49.1153C135.265 49.0238 135.306 48.917 135.319 48.805C135.333 48.6931 135.317 48.5796 135.274 48.4753C135.226 48.3452 135.137 48.2341 135.02 48.1583C134.904 48.0824 134.766 48.0458 134.628 48.0538H132.084C131.968 48.0561 131.852 48.0277 131.75 47.9714C131.648 47.9152 131.563 47.833 131.502 47.7333C131.442 47.6335 131.409 47.5197 131.406 47.4031C131.404 47.2865 131.432 47.1714 131.488 47.0691C131.545 46.9535 131.634 46.8573 131.746 46.7926C131.857 46.728 131.985 46.6977 132.113 46.7058H136.557C136.651 46.7156 136.745 46.7056 136.835 46.6764C136.924 46.6473 137.007 46.5996 137.077 46.5366C137.147 46.4736 137.203 46.3966 137.241 46.3105C137.279 46.2245 137.299 46.1314 137.299 46.0372C137.299 45.9431 137.279 45.8499 137.241 45.7639C137.203 45.6779 137.147 45.6009 137.077 45.5378C137.007 45.4748 136.924 45.4272 136.835 45.398C136.745 45.3689 136.651 45.3589 136.557 45.3686H130.235C130.14 45.3796 130.045 45.3796 129.951 45.3686C129.792 45.3306 129.653 45.2357 129.559 45.1018C129.465 44.9679 129.424 44.8043 129.443 44.6419C129.461 44.4788 129.539 44.3282 129.661 44.2194C129.784 44.1106 129.943 44.0514 130.107 44.0533H133.955C134.188 44.0533 134.42 44.0533 134.653 44.0533C134.83 44.0533 135 43.9829 135.126 43.8575C135.251 43.7321 135.322 43.562 135.322 43.3847C135.322 43.2074 135.251 43.0373 135.126 42.912C135 42.7866 134.83 42.7161 134.653 42.7161C133.581 42.7161 132.513 42.7161 131.441 42.7161C131.329 42.72 131.217 42.6953 131.117 42.6445C131.017 42.5936 130.931 42.5182 130.868 42.4254C130.805 42.3325 130.767 42.2251 130.756 42.1133C130.746 42.0015 130.764 41.8889 130.809 41.786C130.848 41.6639 130.923 41.5565 131.024 41.4779C131.125 41.3994 131.248 41.3535 131.376 41.3463C131.437 41.3427 131.499 41.3427 131.561 41.3463H140.303C140.885 41.3463 141.139 41.6297 141.081 42.2256C141.023 42.8215 140.932 43.4065 140.863 44.0279ZM145.129 48.7079C145.165 48.4999 145.165 48.2872 145.129 48.0793C144.765 47.2036 144.376 46.3424 143.988 45.4777C143.974 45.4498 143.953 45.4257 143.928 45.4074C143.902 45.389 143.873 45.377 143.842 45.3723C143.359 45.3723 142.872 45.3723 142.389 45.3723C142.232 45.3755 142.081 45.4372 141.967 45.5453C141.853 45.6535 141.783 45.8004 141.771 45.9573C141.691 46.6331 141.615 47.309 141.55 47.9848C141.537 48.074 141.544 48.1648 141.569 48.2512C141.594 48.3376 141.637 48.4178 141.696 48.4864C141.754 48.555 141.826 48.6105 141.907 48.6493C141.989 48.6881 142.077 48.7093 142.167 48.7115C143.123 48.7152 144.089 48.7079 145.129 48.7079ZM134.33 52.5776C134.33 52.247 134.126 52.0144 133.861 52.058C133.654 52.1028 133.472 52.2245 133.351 52.3985C133.23 52.5725 133.18 52.7859 133.211 52.9955C133.211 53.0643 133.229 53.1318 133.262 53.1918C133.296 53.2518 133.344 53.3023 133.403 53.3386C133.461 53.3749 133.528 53.3958 133.597 53.3993C133.665 53.4029 133.734 53.3889 133.796 53.3588C133.954 53.2987 134.09 53.1917 134.185 53.052C134.281 52.9124 134.331 52.7468 134.33 52.5776ZM141.72 52.8828C141.72 53.1917 141.92 53.4133 142.167 53.3843C142.277 53.3628 142.382 53.3194 142.474 53.2567C142.567 53.1941 142.646 53.1134 142.707 53.0195C142.768 52.9256 142.81 52.8204 142.829 52.7102C142.849 52.6 142.846 52.4869 142.821 52.3778C142.811 52.3185 142.787 52.2625 142.751 52.214C142.716 52.1655 142.669 52.1259 142.616 52.0982C142.562 52.0704 142.503 52.0553 142.443 52.054C142.383 52.0527 142.324 52.0653 142.269 52.0907C142.104 52.1463 141.96 52.2529 141.86 52.3954C141.759 52.5378 141.707 52.7085 141.709 52.8828H141.72Z" fill="white"/>
<path d="M129.108 48.0393H128.745C128.574 48.0301 128.414 47.956 128.296 47.8324C128.179 47.7088 128.113 47.545 128.112 47.3744C128.11 47.2033 128.175 47.038 128.292 46.9133C128.409 46.7886 128.57 46.7143 128.741 46.7058C128.977 46.7058 129.217 46.7058 129.468 46.7058C129.644 46.7058 129.813 46.7759 129.938 46.9006C130.063 47.0253 130.133 47.1944 130.133 47.3708C130.133 47.5471 130.063 47.7162 129.938 47.8409C129.813 47.9656 129.644 48.0357 129.468 48.0357C129.355 48.043 129.231 48.0393 129.108 48.0393Z" fill="white"/>
<path d="M119.254 29.0685C119.285 29.0929 119.324 29.1062 119.364 29.1062C119.404 29.1062 119.443 29.0929 119.475 29.0685C120.126 28.7051 120.78 28.3127 121.434 27.9348L121.888 27.6695L120.751 27.0119L115.635 24.0541H115.518L113.458 25.2532L113.571 25.3332C115.467 26.5807 117.362 27.8258 119.254 29.0685Z" fill="white"/>
<path d="M115.286 31.612L109.214 28.1093L109.076 28.0402C109.076 28.102 109.076 28.1456 109.076 28.1892V35.0966C109.069 35.1593 109.083 35.2225 109.114 35.2772C109.145 35.332 109.193 35.3756 109.25 35.4018L115.242 38.8573L115.384 38.9336C115.384 38.8755 115.384 38.8355 115.384 38.7919C115.384 36.4556 115.384 34.1155 115.384 31.7792C115.385 31.7449 115.376 31.711 115.359 31.6814C115.341 31.6518 115.316 31.6278 115.286 31.612Z" fill="white"/>
<path d="M122.088 28.171C122.088 28.1238 122.088 28.0802 122.088 28.0293L122.026 28.0511C121.227 28.5089 120.431 28.9668 119.639 29.4319C119.616 29.4498 119.597 29.4723 119.583 29.498C119.57 29.5236 119.561 29.5518 119.559 29.5808C119.559 29.9188 119.559 30.253 119.541 30.591C119.545 30.6389 119.535 30.687 119.513 30.7296C119.49 30.7721 119.456 30.8072 119.414 30.8308C119 31.067 118.589 31.3104 118.171 31.5575C118.136 31.5735 118.097 31.5819 118.058 31.5819C118.02 31.5819 117.981 31.5735 117.946 31.5575C117.893 31.497 117.865 31.4195 117.866 31.3395C117.866 31.0561 117.866 30.7726 117.866 30.4747L117.724 30.5474C117.121 30.9107 116.521 31.245 115.907 31.5902C115.863 31.6111 115.826 31.6455 115.802 31.6885C115.778 31.7315 115.767 31.781 115.773 31.83C115.773 34.1482 115.773 36.4664 115.773 38.7846V38.9518C115.8 38.9427 115.825 38.9305 115.849 38.9154L121.943 35.4018C121.993 35.3735 122.035 35.3307 122.061 35.279C122.088 35.2273 122.098 35.1689 122.092 35.1111C122.089 32.7905 122.088 30.4771 122.088 28.171Z" fill="white"/>
<path d="M117.676 30.1077L117.622 30.0605C115.701 28.8008 113.781 27.54 111.862 26.2779C111.837 26.2573 111.805 26.246 111.772 26.246C111.739 26.246 111.707 26.2573 111.681 26.2779L109.864 27.328L109.275 27.6696L109.366 27.735L115.485 31.2668C115.515 31.2898 115.552 31.3022 115.591 31.3022C115.629 31.3022 115.666 31.2898 115.696 31.2668L117.553 30.1767L117.676 30.1077Z" fill="white"/>
<path d="M118.015 29.8606C118.092 29.9002 118.155 29.9627 118.195 30.0394C118.235 30.1161 118.251 30.2034 118.24 30.2894C118.222 30.5364 118.24 30.7872 118.24 31.0633C118.527 30.8962 118.789 30.7436 119.054 30.5946C119.087 30.5805 119.115 30.5557 119.133 30.5241C119.15 30.4926 119.157 30.456 119.152 30.4202C119.152 30.1549 119.152 29.886 119.152 29.6171C119.157 29.5699 119.149 29.5221 119.127 29.48C119.105 29.4378 119.07 29.4033 119.028 29.381C118.127 28.796 117.212 28.2037 116.329 27.6151L113.178 25.5476C113.117 25.5076 113.069 25.464 112.986 25.5185C112.71 25.6856 112.43 25.8419 112.132 26.0127L112.31 26.1326C114.226 27.3752 116.128 28.6179 118.015 29.8606Z" fill="white"/>
<path d="M110.617 33.3851L110.98 33.1599C111.02 33.1344 111.071 33.1235 111.115 33.0981C111.125 33.0912 111.134 33.0821 111.141 33.0714C111.148 33.0608 111.153 33.0488 111.155 33.0363C111.155 32.8001 111.155 32.5603 111.155 32.3096C111.153 32.2845 111.145 32.2605 111.129 32.2406C111.046 32.1316 110.959 32.0262 110.879 31.9172C110.859 31.8866 110.848 31.8516 110.846 31.8154C110.846 31.6338 110.846 31.4521 110.846 31.274C110.849 31.2567 110.846 31.2388 110.836 31.224C110.827 31.2091 110.812 31.1984 110.795 31.1941C110.73 31.17 110.674 31.1263 110.635 31.069C110.596 31.0117 110.576 30.9437 110.577 30.8744C110.571 30.8028 110.588 30.7311 110.626 30.6701C110.664 30.6091 110.721 30.5622 110.788 30.5364C110.851 30.504 110.924 30.4925 110.994 30.5036C111.064 30.5147 111.13 30.5478 111.18 30.5982C111.222 30.6386 111.254 30.6886 111.273 30.744C111.292 30.7993 111.297 30.8584 111.288 30.9162C111.279 30.974 111.256 31.0287 111.222 31.0759C111.187 31.123 111.142 31.161 111.089 31.1868C111.068 31.1935 111.05 31.2073 111.038 31.2259C111.026 31.2445 111.021 31.2666 111.024 31.2886C111.024 31.4412 111.024 31.5938 111.024 31.75C111.027 31.7905 111.041 31.8295 111.064 31.8627C111.133 31.9608 111.209 32.0553 111.286 32.1497C111.32 32.1889 111.338 32.2395 111.336 32.2914C111.336 32.5095 111.336 32.7238 111.336 32.9382V33.0145C111.566 32.972 111.801 32.9807 112.027 33.04C112.027 33.0145 112.027 32.9927 112.027 32.9709C112.027 32.7311 112.027 32.4877 112.027 32.2442C112.027 32.1903 112.045 32.138 112.078 32.0952C112.219 31.9208 112.354 31.7319 112.488 31.5647C112.507 31.5408 112.517 31.5114 112.517 31.4812C112.517 31.4158 112.517 31.3503 112.517 31.2886C112.522 31.2669 112.518 31.2444 112.506 31.2255C112.495 31.2066 112.477 31.1928 112.456 31.1868C112.392 31.1443 112.343 31.0828 112.317 31.011C112.29 30.9393 112.287 30.861 112.308 30.7873C112.328 30.7136 112.371 30.6483 112.431 30.6006C112.491 30.553 112.564 30.5254 112.641 30.5219C112.719 30.5311 112.792 30.5655 112.849 30.6199C112.906 30.6743 112.944 30.7457 112.957 30.8235C112.969 30.9001 112.956 30.9784 112.92 31.047C112.884 31.1157 112.827 31.171 112.757 31.205C112.745 31.2076 112.734 31.2125 112.725 31.2193C112.715 31.2262 112.706 31.235 112.7 31.2451C112.693 31.2553 112.689 31.2666 112.687 31.2784C112.685 31.2902 112.685 31.3023 112.688 31.314C112.704 31.4125 112.696 31.5135 112.663 31.6079C112.631 31.7024 112.576 31.7874 112.503 31.8554C112.407 31.9644 112.317 32.0785 112.234 32.197C112.215 32.2236 112.203 32.2551 112.201 32.2878C112.201 32.5494 112.201 32.811 112.201 33.0727C112.199 33.087 112.202 33.1016 112.208 33.1145C112.215 33.1275 112.225 33.1382 112.238 33.1453C112.361 33.2216 112.477 33.3016 112.601 33.3815H112.626C112.674 33.327 112.721 33.2761 112.764 33.2216C112.808 33.1671 112.877 33.0799 112.939 33.0145C112.957 32.9969 112.971 32.9753 112.98 32.9514C112.989 32.9274 112.992 32.9018 112.99 32.8764C112.99 32.7892 112.99 32.6984 112.99 32.6112C112.992 32.5959 112.988 32.5803 112.98 32.5675C112.971 32.5547 112.958 32.5456 112.942 32.5422C112.876 32.5171 112.818 32.4718 112.778 32.4125C112.739 32.3531 112.719 32.2829 112.721 32.2115C112.717 32.1379 112.737 32.0651 112.778 32.0041C112.82 31.9431 112.88 31.8972 112.95 31.8736C113.033 31.8513 113.122 31.8594 113.199 31.8964C113.277 31.9334 113.339 31.9969 113.375 32.0755C113.41 32.1541 113.416 32.2428 113.393 32.3256C113.369 32.4084 113.316 32.48 113.244 32.5276C113.219 32.5345 113.197 32.5506 113.183 32.5728C113.169 32.595 113.163 32.6216 113.168 32.6475C113.175 32.7491 113.175 32.8511 113.168 32.9527C113.163 33.0003 113.146 33.0456 113.117 33.0836C113.011 33.218 112.895 33.3488 112.783 33.4796C112.757 33.5087 112.754 33.5269 112.783 33.5596C112.944 33.7683 113.046 34.0171 113.077 34.2793C113.108 34.5414 113.067 34.8071 112.958 35.0476C112.849 35.2882 112.677 35.4947 112.46 35.6448C112.243 35.795 111.989 35.8831 111.726 35.8999C111.462 35.9166 111.199 35.8613 110.965 35.7398C110.73 35.6184 110.533 35.4354 110.395 35.2105C110.257 34.9856 110.183 34.7273 110.18 34.4633C110.177 34.1993 110.247 33.9397 110.381 33.7122C110.409 33.6598 110.442 33.61 110.479 33.5632C110.485 33.5581 110.49 33.5517 110.493 33.5445C110.497 33.5372 110.498 33.5294 110.498 33.5214C110.498 33.5134 110.497 33.5056 110.493 33.4983C110.49 33.4911 110.485 33.4847 110.479 33.4796C110.366 33.3524 110.257 33.218 110.141 33.0908C110.105 33.0496 110.086 32.9965 110.086 32.9418C110.086 32.7275 110.086 32.5131 110.086 32.2951C110.089 32.2769 110.085 32.2585 110.075 32.2431C110.065 32.2278 110.05 32.2166 110.032 32.2115C109.946 32.1738 109.878 32.1044 109.842 32.0177C109.806 31.931 109.805 31.8338 109.839 31.7464C109.862 31.6902 109.897 31.6405 109.944 31.6016C109.99 31.5627 110.045 31.536 110.104 31.5238C110.163 31.5117 110.225 31.5144 110.282 31.5319C110.34 31.5493 110.393 31.5809 110.435 31.6238C110.478 31.6667 110.509 31.7195 110.526 31.7774C110.543 31.8354 110.545 31.8966 110.533 31.9557C110.52 32.0148 110.493 32.0697 110.454 32.1157C110.415 32.1616 110.364 32.197 110.308 32.2188C110.294 32.2222 110.282 32.2309 110.274 32.243C110.266 32.2551 110.262 32.2698 110.265 32.2842V32.9128C110.259 32.9318 110.259 32.9519 110.265 32.9709C110.388 33.1199 110.504 33.2543 110.617 33.3851ZM112.895 34.4534C112.895 34.202 112.821 33.9563 112.681 33.7472C112.542 33.5382 112.343 33.3752 112.111 33.2788C111.879 33.1825 111.623 33.1571 111.377 33.2058C111.13 33.2546 110.903 33.3754 110.725 33.5529C110.547 33.7304 110.426 33.9566 110.377 34.2031C110.327 34.4495 110.352 34.7051 110.447 34.9376C110.543 35.17 110.706 35.3689 110.914 35.5091C111.123 35.6492 111.368 35.7244 111.62 35.7252C111.957 35.7252 112.281 35.5913 112.52 35.3529C112.759 35.1145 112.894 34.791 112.895 34.4534ZM110.748 30.8853C110.748 30.9091 110.753 30.9326 110.763 30.9545C110.773 30.9764 110.786 30.9961 110.804 31.0127C110.821 31.0292 110.841 31.0422 110.863 31.0509C110.886 31.0596 110.909 31.0638 110.933 31.0633C110.98 31.0614 111.025 31.0416 111.058 31.0078C111.091 30.9741 111.11 30.9289 111.111 30.8816C111.111 30.8334 111.092 30.7872 111.058 30.7532C111.024 30.7191 110.978 30.6999 110.929 30.6999C110.881 30.6999 110.835 30.7191 110.801 30.7532C110.767 30.7872 110.748 30.8334 110.748 30.8816V30.8853ZM110.352 31.8954C110.352 31.8472 110.333 31.801 110.299 31.7669C110.264 31.7328 110.218 31.7137 110.17 31.7137C110.122 31.7137 110.076 31.7328 110.042 31.7669C110.008 31.801 109.988 31.8472 109.988 31.8954C109.988 31.9436 110.008 31.9898 110.042 32.0238C110.076 32.0579 110.122 32.0771 110.17 32.0771C110.218 32.0771 110.264 32.0579 110.299 32.0238C110.333 31.9898 110.352 31.9436 110.352 31.8954ZM112.423 30.8853C112.422 30.9089 112.427 30.9325 112.435 30.9545C112.444 30.9765 112.457 30.9966 112.474 31.0135C112.49 31.0304 112.51 31.0439 112.532 31.053C112.554 31.0622 112.577 31.0669 112.601 31.0669C112.649 31.0669 112.696 31.0479 112.731 31.0139C112.765 30.98 112.785 30.9338 112.786 30.8853C112.786 30.8371 112.767 30.7909 112.733 30.7568C112.699 30.7227 112.653 30.7036 112.605 30.7036C112.58 30.7025 112.556 30.7065 112.534 30.7153C112.511 30.7241 112.491 30.7374 112.474 30.7545C112.457 30.7716 112.443 30.792 112.435 30.8145C112.426 30.837 112.422 30.8611 112.423 30.8853ZM112.895 32.2188C112.894 32.2426 112.898 32.2665 112.906 32.2889C112.914 32.3113 112.927 32.3319 112.943 32.3494C112.959 32.367 112.979 32.3811 113.001 32.3911C113.022 32.4011 113.046 32.4068 113.07 32.4077C113.118 32.4077 113.164 32.3886 113.198 32.3545C113.232 32.3204 113.251 32.2742 113.251 32.226C113.251 32.1779 113.232 32.1316 113.198 32.0976C113.164 32.0635 113.118 32.0444 113.07 32.0444C113.025 32.046 112.983 32.0639 112.951 32.0947C112.918 32.1256 112.899 32.1671 112.895 32.2115V32.2188Z" fill="#1C33FF"/>
<path d="M111.551 33.7921V33.6577C111.551 33.6336 111.56 33.6105 111.577 33.5934C111.594 33.5764 111.617 33.5668 111.641 33.5668C111.666 33.5668 111.689 33.5764 111.706 33.5934C111.723 33.6105 111.732 33.6336 111.732 33.6577C111.732 33.6976 111.732 33.7376 111.732 33.7776C111.732 33.7776 111.841 33.7776 111.903 33.7776C111.983 33.7785 112.06 33.8111 112.117 33.8683C112.173 33.9254 112.205 34.0025 112.205 34.0828C112.205 34.1446 112.176 34.1845 112.125 34.1845C112.113 34.1861 112.102 34.1853 112.09 34.1823C112.079 34.1792 112.069 34.174 112.06 34.1669C112.051 34.1598 112.043 34.151 112.037 34.1409C112.032 34.1308 112.028 34.1197 112.027 34.1082C112.027 34.1082 112.027 34.0719 112.027 34.0537C112.023 34.0251 112.009 33.999 111.986 33.9808C111.964 33.9625 111.935 33.9535 111.907 33.9556H111.362C111.332 33.9536 111.303 33.9631 111.281 33.9821C111.259 34.0011 111.245 34.0281 111.242 34.0574C111.24 34.084 111.24 34.1107 111.242 34.1373C111.242 34.3408 111.242 34.5443 111.242 34.7477C111.242 34.8822 111.282 34.9185 111.416 34.9185H111.885C111.983 34.9185 112.012 34.8931 112.034 34.795C112.032 34.7817 112.032 34.7682 112.034 34.755C112.04 34.7352 112.053 34.718 112.07 34.7067C112.087 34.6954 112.108 34.6906 112.129 34.6932C112.149 34.6959 112.168 34.7057 112.182 34.721C112.196 34.7363 112.204 34.7561 112.205 34.7768C112.207 34.8175 112.201 34.8583 112.188 34.8967C112.174 34.9351 112.153 34.9705 112.126 35.0006C112.098 35.0307 112.065 35.0551 112.028 35.0722C111.991 35.0893 111.951 35.0988 111.91 35.1002H111.761C111.73 35.1002 111.715 35.1147 111.718 35.1438C111.72 35.1777 111.72 35.2117 111.718 35.2455C111.718 35.2687 111.709 35.2908 111.692 35.3072C111.676 35.3236 111.654 35.3327 111.631 35.3327C111.609 35.3309 111.588 35.3209 111.574 35.3048C111.559 35.2886 111.551 35.2675 111.551 35.2455C111.549 35.2396 111.549 35.2333 111.551 35.2274C111.551 35.1002 111.551 35.0929 111.423 35.1002C111.374 35.1076 111.324 35.1032 111.276 35.0876C111.229 35.0719 111.186 35.0454 111.15 35.01C111.115 34.9747 111.088 34.9316 111.073 34.8841C111.057 34.8367 111.053 34.7863 111.06 34.7368C111.06 34.5261 111.06 34.3153 111.06 34.1082C111.057 34.023 111.084 33.9394 111.136 33.8721C111.16 33.8406 111.191 33.8148 111.226 33.7966C111.262 33.7784 111.3 33.7682 111.34 33.7667C111.391 33.7921 111.456 33.7921 111.551 33.7921Z" fill="#1C33FF"/>
<path d="M117.041 34.6242C117.168 34.5442 117.28 34.4679 117.404 34.3989C117.448 34.3735 117.499 34.3589 117.538 34.3335C117.55 34.3282 117.56 34.3201 117.568 34.31C117.575 34.2998 117.58 34.2879 117.582 34.2754C117.582 34.0355 117.582 33.7994 117.582 33.5487C117.581 33.5225 117.572 33.4972 117.557 33.476C117.477 33.3706 117.39 33.2652 117.31 33.1562C117.287 33.1257 117.274 33.0889 117.273 33.0509C117.273 32.8728 117.273 32.6875 117.273 32.5131C117.276 32.4959 117.272 32.4784 117.263 32.4637C117.253 32.449 117.239 32.4382 117.222 32.4331C117.159 32.4042 117.105 32.3577 117.067 32.2991C117.03 32.2404 117.01 32.1722 117.01 32.1025C117.01 32.0328 117.03 31.9645 117.067 31.9059C117.105 31.8473 117.159 31.8007 117.222 31.7718C117.287 31.7422 117.359 31.7322 117.43 31.7432C117.5 31.7542 117.566 31.7856 117.618 31.8336C117.661 31.874 117.694 31.9242 117.713 31.98C117.732 32.0357 117.738 32.0954 117.729 32.1537C117.72 32.212 117.697 32.2672 117.662 32.3147C117.627 32.3621 117.581 32.4003 117.528 32.4259C117.477 32.4477 117.459 32.4695 117.462 32.524C117.462 32.6802 117.462 32.8328 117.462 32.9854C117.463 33.0258 117.475 33.0651 117.499 33.0981C117.571 33.1962 117.647 33.2943 117.724 33.3888C117.755 33.4291 117.772 33.4792 117.771 33.5305C117.771 33.7449 117.771 33.9629 117.771 34.1773V34.2536C117.999 34.2092 118.234 34.2179 118.458 34.279C118.459 34.256 118.459 34.2329 118.458 34.21V33.4832C118.456 33.4302 118.474 33.3784 118.509 33.3379C118.647 33.1635 118.785 32.9745 118.919 32.8074C118.936 32.7814 118.946 32.7513 118.948 32.7202C118.948 32.6584 118.948 32.593 118.948 32.5313C118.952 32.5088 118.947 32.4857 118.935 32.4663C118.923 32.447 118.905 32.4326 118.883 32.4259C118.805 32.3894 118.742 32.3262 118.706 32.2477C118.67 32.1691 118.663 32.0802 118.687 31.9971C118.712 31.9153 118.765 31.845 118.837 31.7984C118.908 31.7519 118.994 31.7322 119.079 31.7428C119.157 31.7527 119.229 31.7874 119.285 31.8417C119.342 31.8961 119.379 31.9671 119.392 32.0444C119.399 32.1181 119.384 32.1924 119.349 32.2573C119.313 32.3223 119.258 32.3748 119.192 32.4077C119.137 32.4331 119.115 32.4622 119.126 32.5204C119.143 32.6186 119.134 32.7195 119.101 32.8135C119.068 32.9075 119.012 32.9916 118.937 33.0581C118.841 33.1743 118.752 33.2956 118.669 33.4215C118.649 33.4478 118.637 33.4794 118.636 33.5123C118.636 33.7739 118.636 34.0355 118.636 34.2972C118.635 34.3118 118.638 34.3265 118.645 34.3394C118.652 34.3523 118.663 34.3629 118.676 34.3698L119.039 34.606H119.065L119.206 34.4425C119.264 34.3771 119.319 34.3044 119.381 34.239C119.399 34.2204 119.413 34.1981 119.421 34.1737C119.43 34.1492 119.434 34.1232 119.432 34.0973C119.432 34.0101 119.432 33.9229 119.432 33.8357C119.433 33.8205 119.429 33.8053 119.42 33.7926C119.412 33.78 119.399 33.7708 119.384 33.7667C119.319 33.7396 119.262 33.6939 119.222 33.6351C119.182 33.5764 119.16 33.5071 119.159 33.436C119.158 33.3626 119.18 33.2907 119.221 33.2297C119.261 33.1688 119.32 33.1216 119.388 33.0945C119.475 33.0603 119.573 33.0613 119.659 33.0972C119.746 33.1331 119.815 33.2011 119.853 33.287C119.889 33.3718 119.891 33.4669 119.859 33.5532C119.828 33.6395 119.764 33.7106 119.682 33.7521C119.657 33.759 119.636 33.7752 119.622 33.7976C119.608 33.8199 119.604 33.8465 119.61 33.872C119.615 33.9737 119.615 34.0756 119.61 34.1773C119.605 34.2231 119.589 34.267 119.562 34.3044C119.453 34.4389 119.341 34.5697 119.224 34.7005C119.218 34.7056 119.213 34.712 119.21 34.7192C119.207 34.7264 119.205 34.7343 119.205 34.7423C119.205 34.7502 119.207 34.7581 119.21 34.7653C119.213 34.7726 119.218 34.7789 119.224 34.7841C119.41 35.0273 119.514 35.3231 119.522 35.6291C119.53 35.9351 119.441 36.2357 119.268 36.4882C119.048 36.7807 118.726 36.9795 118.366 37.045C118.006 37.1105 117.635 37.0378 117.326 36.8415C117.017 36.6451 116.794 36.3396 116.701 35.9858C116.607 35.6321 116.651 35.2561 116.823 34.933C116.852 34.8812 116.885 34.8314 116.921 34.7841C116.927 34.7793 116.932 34.7732 116.935 34.7663C116.938 34.7594 116.94 34.7518 116.94 34.7441C116.94 34.7364 116.938 34.7288 116.935 34.7219C116.932 34.715 116.927 34.7089 116.921 34.7041L116.586 34.3117C116.568 34.2925 116.554 34.2696 116.544 34.2446C116.535 34.2197 116.531 34.193 116.532 34.1664V33.545C116.534 33.5269 116.53 33.5084 116.52 33.4931C116.51 33.4777 116.495 33.4665 116.477 33.4614C116.4 33.4192 116.341 33.3504 116.311 33.2679C116.281 33.1854 116.282 33.0948 116.313 33.0128C116.345 32.9308 116.405 32.8629 116.482 32.8218C116.56 32.7807 116.65 32.7692 116.735 32.7892C116.823 32.8185 116.896 32.8798 116.939 32.9607C116.983 33.0416 116.995 33.1362 116.972 33.2253C116.956 33.2794 116.929 33.3292 116.891 33.3708C116.853 33.4124 116.806 33.4447 116.754 33.4651C116.74 33.4699 116.728 33.4794 116.72 33.492C116.712 33.5045 116.708 33.5194 116.71 33.5341C116.71 33.7412 116.71 33.952 116.71 34.1627C116.71 34.1627 116.71 34.2063 116.71 34.2172L117.041 34.6242ZM119.323 35.6925C119.324 35.4401 119.251 35.1929 119.111 34.9823C118.972 34.7717 118.774 34.6071 118.541 34.5093C118.308 34.4116 118.052 34.3851 117.804 34.4332C117.556 34.4813 117.328 34.6018 117.149 34.7795C116.97 34.9572 116.848 35.1841 116.797 35.4315C116.747 35.6788 116.771 35.9355 116.867 36.169C116.963 36.4026 117.126 36.6024 117.335 36.7433C117.545 36.8842 117.791 36.9598 118.044 36.9606C118.381 36.9606 118.705 36.8273 118.944 36.5898C119.184 36.3523 119.32 36.0298 119.323 35.6925ZM117.171 32.117C117.171 32.1652 117.191 32.2114 117.225 32.2455C117.259 32.2796 117.305 32.2987 117.353 32.2987C117.401 32.2987 117.448 32.2796 117.482 32.2455C117.516 32.2114 117.535 32.1652 117.535 32.117C117.535 32.0688 117.516 32.0226 117.482 31.9886C117.448 31.9545 117.401 31.9354 117.353 31.9354C117.305 31.9354 117.259 31.9545 117.225 31.9886C117.191 32.0226 117.171 32.0688 117.171 32.117ZM116.779 33.1308C116.779 33.0949 116.768 33.0597 116.748 33.0299C116.728 33 116.7 32.9767 116.667 32.9629C116.634 32.9492 116.597 32.9456 116.562 32.9526C116.527 32.9596 116.494 32.9769 116.469 33.0023C116.444 33.0277 116.426 33.0601 116.419 33.0953C116.412 33.1306 116.416 33.1671 116.43 33.2003C116.443 33.2335 116.467 33.2619 116.496 33.2819C116.526 33.3018 116.561 33.3125 116.597 33.3125C116.646 33.3125 116.692 33.2933 116.726 33.2593C116.76 33.2252 116.779 33.179 116.779 33.1308ZM118.847 32.1134C118.847 32.1616 118.866 32.2078 118.9 32.2419C118.934 32.2759 118.98 32.2951 119.028 32.2951C119.076 32.2951 119.123 32.2759 119.157 32.2419C119.191 32.2078 119.21 32.1616 119.21 32.1134C119.21 32.0649 119.191 32.0183 119.157 31.9836C119.123 31.949 119.077 31.929 119.028 31.9281C119.004 31.9281 118.98 31.9329 118.958 31.9423C118.936 31.9516 118.915 31.9653 118.898 31.9826C118.882 31.9998 118.868 32.0203 118.859 32.0428C118.85 32.0652 118.846 32.0892 118.847 32.1134ZM119.319 33.4505C119.319 33.4987 119.338 33.5449 119.372 33.579C119.406 33.6131 119.452 33.6322 119.501 33.6322C119.549 33.6322 119.595 33.6131 119.629 33.579C119.663 33.5449 119.682 33.4987 119.682 33.4505C119.682 33.4024 119.663 33.3561 119.629 33.3221C119.595 33.288 119.549 33.2689 119.501 33.2689C119.452 33.2689 119.406 33.288 119.372 33.3221C119.338 33.3561 119.319 33.4024 119.319 33.4505Z" fill="#1C33FF"/>
<path d="M117.96 35.0275C117.96 34.9767 117.96 34.9367 117.96 34.8931C117.96 34.8807 117.961 34.8683 117.966 34.8566C117.97 34.845 117.977 34.8343 117.985 34.8252C117.994 34.8161 118.004 34.8087 118.015 34.8035C118.026 34.7984 118.038 34.7955 118.051 34.795C118.102 34.795 118.134 34.835 118.138 34.8967C118.142 34.9585 118.138 34.9767 118.138 35.0166H118.309C118.389 35.0185 118.466 35.0519 118.523 35.1096C118.579 35.1673 118.61 35.2448 118.61 35.3255C118.61 35.3836 118.581 35.4236 118.53 35.4272C118.519 35.4282 118.507 35.4269 118.496 35.4234C118.486 35.42 118.475 35.4143 118.467 35.4069C118.458 35.3995 118.451 35.3904 118.445 35.3802C118.44 35.3699 118.437 35.3587 118.436 35.3473V35.2964C118.433 35.2681 118.42 35.242 118.398 35.2237C118.376 35.2054 118.348 35.1963 118.32 35.1983C118.138 35.1983 117.956 35.1983 117.775 35.1983C117.76 35.1968 117.745 35.1983 117.731 35.2026C117.717 35.207 117.704 35.2141 117.693 35.2236C117.682 35.2331 117.673 35.2448 117.666 35.2579C117.66 35.2711 117.656 35.2854 117.655 35.3C117.651 35.3254 117.651 35.351 117.655 35.3764V35.9868C117.655 36.1212 117.695 36.1612 117.829 36.1612H118.298C118.396 36.1612 118.429 36.1358 118.447 36.0377V35.9941C118.453 35.9739 118.466 35.9567 118.484 35.9454C118.501 35.9341 118.523 35.9296 118.543 35.9327C118.564 35.9358 118.583 35.9463 118.597 35.9622C118.61 35.9782 118.618 35.9985 118.618 36.0195C118.62 36.0597 118.614 36.1 118.601 36.138C118.588 36.176 118.567 36.2109 118.54 36.2407C118.513 36.2705 118.48 36.2946 118.443 36.3115C118.407 36.3284 118.367 36.3379 118.327 36.3392H118.178C118.142 36.3392 118.131 36.3392 118.131 36.3865C118.134 36.4203 118.134 36.4544 118.131 36.4882C118.127 36.5088 118.115 36.5272 118.099 36.5405C118.083 36.5537 118.063 36.561 118.042 36.561C118.021 36.561 118 36.5537 117.984 36.5405C117.968 36.5272 117.957 36.5088 117.953 36.4882C117.953 36.361 117.953 36.3538 117.822 36.3647C117.773 36.372 117.722 36.3677 117.675 36.3521C117.627 36.3364 117.584 36.3098 117.549 36.2745C117.513 36.2392 117.487 36.1961 117.471 36.1486C117.456 36.1012 117.451 36.0507 117.459 36.0013C117.459 35.7942 117.459 35.5835 117.459 35.3727C117.453 35.2889 117.479 35.2061 117.531 35.1402C117.555 35.108 117.587 35.0819 117.623 35.0636C117.659 35.0453 117.698 35.0355 117.738 35.0348L117.96 35.0275Z" fill="#1C33FF"/>
<path d="M116.059 40.4016H114.926V47.8903H116.059V40.4016Z" fill="white"/>
<path d="M104.202 48.9212L103.989 50.0348L112.691 51.6947L112.903 50.5811L104.202 48.9212Z" fill="white"/>
<path d="M114.221 54.2181L108.451 60.9402L109.311 61.6785L115.081 54.9565L114.221 54.2181Z" fill="white"/>
<path d="M117.621 54.2292L116.761 54.9675L122.53 61.6896L123.391 60.9512L117.621 54.2292Z" fill="white"/>
<path d="M126.502 48.9217L117.801 50.5831L118.013 51.6967L126.715 50.0352L126.502 48.9217Z" fill="white"/>
<path d="M115.577 60.7059C120.511 60.7059 124.511 56.7056 124.511 51.771C124.511 46.8364 120.511 42.8361 115.577 42.8361C110.642 42.8361 106.642 46.8364 106.642 51.771C106.642 56.7056 110.642 60.7059 115.577 60.7059Z" fill="white"/>
<path d="M114.751 56.0258C114.853 55.6625 114.948 55.2991 115.046 54.9721C115.082 54.834 115.104 54.7032 114.973 54.6087C114.842 54.5142 114.73 54.5651 114.61 54.6342L111.808 56.2511C111.565 56.3928 111.539 56.4945 111.677 56.738C112.204 57.6536 112.735 58.5548 113.262 59.485C113.331 59.6085 113.407 59.7139 113.571 59.6921C113.734 59.6703 113.778 59.5431 113.814 59.4087L114.101 58.3695C114.341 58.4022 114.57 58.4458 114.802 58.4712C115.827 58.6005 116.867 58.4949 117.845 58.1625C118.823 57.8301 119.712 57.2796 120.445 56.5527C121.31 55.73 121.938 54.6895 122.262 53.5405C122.36 53.2062 122.317 53.1335 121.986 53.0427L120.394 52.6139C120.118 52.5376 120.031 52.5885 119.944 52.8682C119.651 53.8694 119.02 54.7381 118.159 55.3265C117.298 55.9148 116.259 56.1863 115.22 56.0949C115.082 56.0767 114.93 56.0512 114.751 56.0258Z" fill="#DA251D"/>
<path d="M119.886 50.1431L118.796 50.4265C118.665 50.4592 118.559 50.5101 118.538 50.6554C118.516 50.8008 118.61 50.8916 118.73 50.9607L121.532 52.5776C121.786 52.7193 121.895 52.6939 122.029 52.4395L123.606 49.7107L123.639 49.6526C123.674 49.6073 123.693 49.5517 123.693 49.4945C123.693 49.4373 123.674 49.3817 123.639 49.3365C123.602 49.2899 123.551 49.2566 123.493 49.2416C123.436 49.2265 123.375 49.2305 123.319 49.2529L122.229 49.5327C122.066 49.1693 121.931 48.806 121.746 48.4426C121.255 47.4619 120.534 46.6146 119.644 45.973C118.755 45.3315 117.723 44.9146 116.637 44.7582C115.729 44.6166 114.801 44.6636 113.912 44.8962C113.676 44.9544 113.611 45.0634 113.672 45.2959C113.821 45.8664 113.974 46.4332 114.126 47.0001C114.188 47.2254 114.29 47.2835 114.523 47.229C115.542 46.9734 116.619 47.0814 117.567 47.5344C118.516 47.9874 119.277 48.7571 119.719 49.7107C119.773 49.8415 119.82 49.9796 119.886 50.1431Z" fill="#DA251D"/>
<path d="M110.551 46.8729C110.073 47.4059 109.676 48.0057 109.371 48.6534C108.772 49.9327 108.577 51.3644 108.814 52.7571C109.05 54.1498 109.706 55.4372 110.693 56.4474C110.718 56.4848 110.753 56.5155 110.792 56.5368C110.832 56.558 110.877 56.5691 110.922 56.5691C110.967 56.5691 111.012 56.558 111.052 56.5368C111.092 56.5155 111.126 56.4848 111.151 56.4474L112.39 55.2083C112.572 55.0267 112.568 54.9176 112.39 54.7287C111.632 53.9442 111.185 52.9113 111.132 51.822C111.078 50.7326 111.422 49.6609 112.099 48.806L112.219 48.6607C112.488 48.9186 112.75 49.1657 113.008 49.4201C113.106 49.5182 113.204 49.5945 113.349 49.54C113.495 49.4855 113.516 49.3583 113.516 49.2202C113.516 48.1326 113.516 47.0425 113.516 45.95C113.516 45.6957 113.433 45.6085 113.175 45.6085H109.952C109.814 45.6085 109.69 45.6303 109.632 45.7756C109.611 45.8345 109.611 45.8986 109.63 45.9579C109.65 46.0172 109.689 46.0681 109.741 46.1026L110.551 46.8729Z" fill="#DA251D"/>
<defs>
<linearGradient id="paint0_linear_25891_144269" x1="111.096" y1="101.398" x2="75.0696" y2="131.433" gradientUnits="userSpaceOnUse">
<stop offset="0.07" stop-color="#008DFF"/>
<stop offset="0.12" stop-color="#0382FF"/>
<stop offset="0.31" stop-color="#0E60FF"/>
<stop offset="0.5" stop-color="#1647FF"/>
<stop offset="0.66" stop-color="#1A38FF"/>
<stop offset="0.8" stop-color="#1C33FF"/>
</linearGradient>
</defs>
</svg>
