<svg width="69" height="69" viewBox="0 0 69 69" fill="none" xmlns="http://www.w3.org/2000/svg">
<path d="M34.5 69C53.5538 69 69 53.5538 69 34.5C69 15.4462 53.5538 0 34.5 0C15.4462 0 0 15.4462 0 34.5C0 53.5538 15.4462 69 34.5 69Z" fill="#1C33FF"/>
<path d="M17.042 37.0717H14.1379C14.2669 37.3908 14.2785 37.7453 14.1704 38.0721C14.0623 38.3989 13.8417 38.6767 13.5479 38.8559C13.3133 39.0244 13.0306 39.113 12.7418 39.1086C12.4529 39.1041 12.1732 39.0068 11.9439 38.8312C11.6626 38.6495 11.4532 38.3757 11.3514 38.0568C11.2496 37.7378 11.2617 37.3933 11.3857 37.0823C11.1496 37.0822 10.9137 37.0693 10.6791 37.0434C10.3284 36.9915 10.0075 36.8166 9.7739 36.55C9.54027 36.2833 9.40903 35.9423 9.40363 35.5878C9.39743 35.2344 9.51526 34.8899 9.73664 34.6143C9.95803 34.3387 10.269 34.1494 10.6155 34.0792L10.8098 34.0404C10.7744 33.7471 10.7391 33.4574 10.7003 33.1677L10.2233 29.511C10.0926 28.5253 9.96891 27.5361 9.82759 26.5504C9.78698 26.2706 9.64731 26.0148 9.43399 25.8294C9.22067 25.6439 8.94788 25.5412 8.66523 25.5399C8.17414 25.5399 7.68658 25.5399 7.19903 25.5399C7.12119 25.5438 7.04365 25.5278 6.97369 25.4935C6.90373 25.4591 6.84366 25.4076 6.79914 25.3436C6.75462 25.2796 6.7271 25.2054 6.71918 25.1279C6.71125 25.0503 6.72319 24.9721 6.75386 24.9004C6.77958 24.8257 6.82688 24.7604 6.88977 24.7126C6.95266 24.6648 7.02832 24.6367 7.10716 24.6319C7.72205 24.6107 8.33762 24.6213 8.9514 24.6637C9.40368 24.7248 9.82333 24.9329 10.1457 25.2559C10.4681 25.579 10.6754 25.999 10.7356 26.4514C10.7568 26.6104 10.7815 26.7729 10.7956 26.9355C10.7956 27.0238 10.8416 27.0626 10.9299 27.052H21.2569C21.3533 27.05 21.4495 27.0607 21.5431 27.0838C21.6452 27.12 21.731 27.1915 21.7848 27.2855C21.8387 27.3796 21.8569 27.4898 21.8364 27.5961C21.6197 28.9481 21.403 30.3012 21.1863 31.6556C21.1333 32.0089 21.0768 32.3304 21.0238 32.666C20.9766 33.0869 20.7798 33.4769 20.4691 33.7649C20.1585 34.0528 19.7547 34.2195 19.3314 34.2347L14.4559 34.6586L10.884 34.9696C10.8023 34.9677 10.7212 34.9825 10.6455 35.0132C10.5698 35.044 10.5013 35.0899 10.444 35.1481C10.3868 35.2064 10.3422 35.2758 10.3128 35.352C10.2835 35.4282 10.2701 35.5097 10.2735 35.5913C10.2769 35.6729 10.297 35.7529 10.3325 35.8264C10.3681 35.8999 10.4183 35.9654 10.4802 36.0187C10.5421 36.072 10.6142 36.1121 10.6921 36.1364C10.7701 36.1608 10.8522 36.1689 10.9334 36.1602H16.233C16.9396 36.1602 17.6674 36.1602 18.3811 36.1602C18.7165 36.1573 19.0428 36.2696 19.3055 36.4782C19.5681 36.6868 19.7513 36.9792 19.8245 37.3066C19.8977 37.6339 19.8564 37.9765 19.7075 38.2771C19.5586 38.5777 19.3111 38.8181 19.0064 38.9583C18.7551 39.0733 18.4763 39.1149 18.2024 39.0783C17.9284 39.0417 17.6704 38.9284 17.458 38.7515C17.2457 38.5746 17.0877 38.3413 17.0022 38.0785C16.9167 37.8156 16.9072 37.534 16.9749 37.266C17.0102 37.1954 17.0244 37.1424 17.042 37.0717ZM13.8835 32.1255C13.7881 31.1115 13.6927 30.0904 13.5938 29.0694C13.5909 29.0071 13.5751 28.946 13.5474 28.89C13.5197 28.8341 13.4808 28.7845 13.433 28.7443C13.3852 28.7041 13.3296 28.6743 13.2697 28.6567C13.2099 28.6391 13.147 28.634 13.085 28.6419C13.0232 28.6501 12.9636 28.6706 12.9098 28.7022C12.856 28.7338 12.8091 28.7759 12.7719 28.826C12.7347 28.8761 12.7079 28.9331 12.6931 28.9937C12.6783 29.0544 12.6758 29.1173 12.6858 29.1789C12.7141 29.451 12.7388 29.7265 12.7635 29.9986C12.8342 30.7299 12.9013 31.4648 12.9755 32.1961C12.9804 32.2561 12.9972 32.3145 13.0251 32.3679C13.0529 32.4212 13.0912 32.4684 13.1377 32.5067C13.1842 32.5449 13.2379 32.5734 13.2956 32.5905C13.3533 32.6075 13.4139 32.6128 13.4737 32.606C13.587 32.5914 13.6912 32.5359 13.7666 32.4501C13.842 32.3643 13.8836 32.2539 13.8835 32.1396V32.1255ZM17.9854 32.1255C17.9823 32.2432 18.0246 32.3576 18.1035 32.4451C18.1824 32.5325 18.2919 32.5863 18.4093 32.5954C18.469 32.6002 18.5291 32.5931 18.586 32.5745C18.643 32.5559 18.6956 32.5262 18.741 32.4871C18.7864 32.448 18.8235 32.4002 18.8502 32.3466C18.877 32.2931 18.8929 32.2347 18.8969 32.1749C18.9934 31.1716 19.0877 30.1705 19.1795 29.1719C19.1906 29.1105 19.1891 29.0475 19.1752 28.9867C19.1613 28.9259 19.1353 28.8685 19.0986 28.818C19.062 28.7675 19.0156 28.7249 18.9621 28.6929C18.9086 28.6608 18.8491 28.6398 18.7873 28.6313C18.723 28.6252 18.658 28.6329 18.5969 28.654C18.5358 28.6751 18.4799 28.7091 18.4331 28.7536C18.3862 28.7982 18.3494 28.8522 18.3252 28.9122C18.301 28.9722 18.2899 29.0366 18.2927 29.1012C18.2539 29.4333 18.2256 29.7689 18.1938 30.101C18.1161 30.7653 18.0525 31.4471 17.9854 32.1502V32.1255ZM16.392 30.6239C16.392 30.1328 16.392 29.6382 16.392 29.1471C16.3975 29.0837 16.3899 29.0197 16.3694 28.9594C16.3489 28.8991 16.3162 28.8436 16.2731 28.7967C16.2301 28.7497 16.1778 28.7122 16.1195 28.6865C16.0612 28.6608 15.9981 28.6476 15.9344 28.6476C15.8707 28.6476 15.8077 28.6608 15.7494 28.6865C15.6911 28.7122 15.6388 28.7497 15.5957 28.7967C15.5527 28.8436 15.5199 28.8991 15.4995 28.9594C15.479 29.0197 15.4713 29.0837 15.4769 29.1471C15.4769 30.127 15.4769 31.108 15.4769 32.0901C15.4699 32.1453 15.4699 32.2011 15.4769 32.2562C15.5044 32.3645 15.5708 32.4589 15.6634 32.5214C15.756 32.584 15.8683 32.6104 15.9791 32.5956C16.0898 32.5807 16.1913 32.5257 16.2641 32.441C16.337 32.3563 16.3762 32.2478 16.3743 32.1361C16.3955 31.6556 16.392 31.1539 16.392 30.6487V30.6239ZM12.2124 37.5946C12.2117 37.7039 12.2435 37.8109 12.3038 37.9021C12.3641 37.9933 12.4501 38.0645 12.551 38.1066C12.6518 38.1488 12.7629 38.16 12.8702 38.1388C12.9774 38.1177 13.076 38.0651 13.1533 37.9878C13.2305 37.9106 13.2831 37.812 13.3043 37.7048C13.3254 37.5975 13.3142 37.4864 13.2721 37.3856C13.2299 37.2847 13.1587 37.1987 13.0675 37.1384C12.9764 37.0781 12.8693 37.0463 12.76 37.047C12.686 37.0469 12.6127 37.0618 12.5446 37.0909C12.4765 37.1199 12.415 37.1625 12.3638 37.216C12.3126 37.2695 12.2728 37.3328 12.2468 37.4022C12.2207 37.4715 12.209 37.5454 12.2124 37.6193V37.5946ZM18.9746 37.5946C18.9746 37.4475 18.9162 37.3064 18.8121 37.2024C18.7081 37.0983 18.567 37.0399 18.4199 37.0399C18.2728 37.0399 18.1317 37.0983 18.0277 37.2024C17.9237 37.3064 17.8652 37.4475 17.8652 37.5946C17.8652 37.7417 17.9237 37.8828 18.0277 37.9868C18.1317 38.0908 18.2728 38.1493 18.4199 38.1493C18.567 38.1493 18.7081 38.0908 18.8121 37.9868C18.9162 37.8828 18.9746 37.7417 18.9746 37.5946Z" fill="white"/>
<path d="M19.9831 57.0125L18.5699 56.4366C18.2696 56.6486 17.9552 56.8782 17.6337 57.0973C17.5296 57.1771 17.3994 57.2152 17.2687 57.2041C17.138 57.193 17.0162 57.1335 16.9271 57.0372C16.6268 56.744 16.3335 56.4472 16.0403 56.1504C15.9477 56.0587 15.8916 55.9364 15.8825 55.8064C15.8734 55.6764 15.9119 55.5475 15.9908 55.4438C16.1922 55.1541 16.3971 54.8679 16.602 54.5817C16.6216 54.5606 16.6339 54.5338 16.6371 54.5052C16.6403 54.4765 16.6342 54.4476 16.6197 54.4228C16.4501 54.0235 16.2841 53.6208 16.1215 53.218C16.1159 53.1893 16.1005 53.1635 16.0779 53.1448C16.0554 53.1261 16.0271 53.1158 15.9979 53.1155C15.6446 53.059 15.2913 52.9954 14.9168 52.9283C14.7923 52.9086 14.6793 52.8444 14.5987 52.7475C14.5181 52.6507 14.4754 52.5278 14.4787 52.4019C14.4787 51.9779 14.4787 51.5539 14.4787 51.1335C14.4757 51.0074 14.5189 50.8846 14.6003 50.7883C14.6817 50.6919 14.7955 50.6287 14.9203 50.6106C15.309 50.5364 15.6976 50.4728 16.058 50.4092C16.224 50.01 16.3689 49.6214 16.5526 49.2469C16.5976 49.1856 16.6191 49.1101 16.6133 49.0343C16.6075 48.9585 16.5746 48.8872 16.5208 48.8335C16.3335 48.6074 16.1675 48.3566 16.0049 48.1269C15.9584 48.0718 15.9231 48.008 15.9013 47.9392C15.8794 47.8704 15.8714 47.798 15.8776 47.7261C15.8839 47.6542 15.9043 47.5842 15.9376 47.5202C15.971 47.4562 16.0167 47.3995 16.0721 47.3532L16.8988 46.5264C16.9925 46.4182 17.1248 46.351 17.2674 46.3391C17.41 46.3272 17.5517 46.3716 17.6619 46.4629L18.5876 47.12C19.0012 46.8836 19.4427 46.6996 19.9019 46.5724C19.9198 46.5616 19.9354 46.5473 19.9475 46.5303C19.9597 46.5133 19.9682 46.4939 19.9725 46.4735C20.0361 46.1201 20.0927 45.7668 20.1563 45.3923C20.1744 45.2647 20.2387 45.1482 20.337 45.0648C20.4354 44.9815 20.5609 44.9371 20.6897 44.9401C21.1066 44.9401 21.5271 44.9401 21.944 44.9401C22.0797 44.9359 22.2119 44.9837 22.3137 45.0736C22.4154 45.1636 22.4791 45.2889 22.4916 45.4241C22.5552 45.7986 22.6223 46.1731 22.6859 46.5441C22.9226 46.6289 23.1593 46.7031 23.3925 46.7985C23.6257 46.8939 23.8412 47.0069 24.0673 47.1129L24.9788 46.4664C25.0338 46.4193 25.0975 46.3837 25.1664 46.3616C25.2352 46.3395 25.3078 46.3313 25.3798 46.3376C25.4518 46.3438 25.5219 46.3644 25.5859 46.398C25.6499 46.4317 25.7066 46.4777 25.7526 46.5335C26.0281 46.8091 26.3073 47.0811 26.5793 47.3602C26.6889 47.4529 26.7574 47.5851 26.7699 47.728C26.7825 47.8709 26.7381 48.013 26.6464 48.1234C26.4309 48.4307 26.2119 48.7346 25.9893 49.049C26.2265 49.4623 26.4105 49.9039 26.5369 50.3633C26.5456 50.3804 26.5581 50.3954 26.5734 50.407C26.5887 50.4186 26.6064 50.4266 26.6252 50.4304C26.9785 50.4905 27.3071 50.5506 27.6498 50.6036C27.7301 50.6078 27.8087 50.6285 27.8807 50.6645C27.9527 50.7004 28.0165 50.7507 28.0682 50.8123C28.1199 50.874 28.1584 50.9456 28.1812 51.0227C28.204 51.0999 28.2108 51.1809 28.201 51.2607C28.1833 51.6317 28.201 52.0026 28.201 52.3771C28.212 52.5148 28.1691 52.6514 28.0815 52.7581C27.9939 52.8649 27.8682 52.9335 27.7311 52.9495C27.353 53.0201 26.9715 53.0802 26.6111 53.1438C26.4919 53.5066 26.3479 53.8607 26.1801 54.2037C26.1064 54.2982 26.0713 54.417 26.0818 54.5363C26.0923 54.6557 26.1476 54.7666 26.2366 54.8467C26.3937 55.0399 26.5399 55.2416 26.6747 55.4509C26.7213 55.506 26.7565 55.5698 26.7784 55.6386C26.8002 55.7074 26.8083 55.7798 26.802 55.8517C26.7958 55.9236 26.7754 55.9936 26.742 56.0576C26.7086 56.1216 26.663 56.1783 26.6076 56.2246C26.332 56.5037 26.0564 56.7793 25.7773 57.0513C25.7318 57.1056 25.6759 57.1503 25.613 57.1829C25.5501 57.2155 25.4814 57.2354 25.4107 57.2413C25.3401 57.2472 25.2691 57.2391 25.2016 57.2174C25.1341 57.1957 25.0716 57.1609 25.0177 57.1149L24.1238 56.4825L22.7106 57.0619C22.6506 57.394 22.5905 57.7685 22.5234 58.1218C22.5012 58.2676 22.4272 58.4004 22.3149 58.4958C22.2026 58.5912 22.0595 58.6429 21.9122 58.6412C21.5306 58.6412 21.149 58.6412 20.7675 58.6412C20.6295 58.6435 20.4949 58.598 20.3867 58.5123C20.2785 58.4267 20.2033 58.3062 20.1739 58.1713C20.1068 57.7509 20.0609 57.3658 19.9831 57.0125ZM21.361 49.4235C20.8978 49.4228 20.4449 49.5597 20.0596 49.8167C19.6742 50.0738 19.3739 50.4394 19.1967 50.8674C19.0194 51.2953 18.9732 51.7662 19.0639 52.2204C19.1546 52.6746 19.3782 53.0917 19.7062 53.4187C20.0342 53.7457 20.4519 53.968 20.9064 54.0573C21.3609 54.1467 21.8317 54.099 22.2591 53.9205C22.6865 53.742 23.0512 53.4405 23.3071 53.0544C23.563 52.6683 23.6985 52.215 23.6964 51.7518C23.6917 51.1345 23.444 50.5439 23.0068 50.1081C22.5696 49.6723 21.9783 49.4263 21.361 49.4235Z" fill="white"/>
<path d="M45.2629 51.7905H47.5665V54.034C47.5276 54.034 47.4852 54.034 47.4428 54.034H45.7151C45.6162 54.034 45.5703 54.0128 45.5385 53.9068C45.3652 53.2418 45.2703 52.5588 45.2559 51.8718C45.2559 51.8577 45.2594 51.8294 45.2629 51.7905Z" fill="white"/>
<path d="M50.1147 51.7905C50.0476 52.3311 49.9911 52.8504 49.9169 53.3769C49.8848 53.5719 49.8387 53.7643 49.7791 53.9527C49.7699 53.9749 49.7554 53.9946 49.737 54.01C49.7185 54.0254 49.6966 54.036 49.6731 54.0411H47.7971C47.7971 54.0411 47.7794 54.0411 47.7617 54.0411V51.8047L50.1147 51.7905Z" fill="white"/>
<path d="M50.0924 51.5927H47.7783V49.3492C47.8172 49.3492 47.8596 49.3492 47.902 49.3492C48.4779 49.3492 49.0537 49.3492 49.6296 49.3492C49.7427 49.3492 49.7815 49.3846 49.8098 49.4906C49.9814 50.1463 50.0762 50.8197 50.0924 51.4973V51.5927Z" fill="white"/>
<path d="M45.252 51.5929C45.2581 50.8597 45.3602 50.1304 45.5558 49.4236C45.5641 49.4035 45.5771 49.3857 45.5937 49.3715C45.6103 49.3574 45.63 49.3474 45.6512 49.3424H47.5661V51.5964L45.252 51.5929Z" fill="white"/>
<path d="M45.3341 54.0413H43.7018C43.6583 54.0466 43.6142 54.0378 43.5761 54.0162C43.5379 53.9945 43.5077 53.9612 43.4899 53.9212C43.1581 53.294 42.9676 52.6018 42.9316 51.8932V51.7837H45.0267L45.3341 54.0413Z" fill="white"/>
<path d="M49.998 54.041L50.309 51.794H52.4288C52.3828 52.1084 52.3511 52.4228 52.291 52.7302C52.2024 53.1574 52.0462 53.5677 51.8282 53.9456C51.8132 53.971 51.7928 53.9928 51.7683 54.0093C51.7438 54.0258 51.716 54.0366 51.6868 54.041C51.1357 54.041 50.5845 54.041 50.0334 54.041H49.998Z" fill="white"/>
<path d="M45.337 49.339L45.0261 51.5966H42.9062C42.931 51.367 42.9416 51.1409 42.9769 50.9218C43.0638 50.4092 43.2332 49.914 43.4786 49.4556C43.4937 49.4173 43.5208 49.3849 43.5558 49.3633C43.5908 49.3416 43.6319 49.3319 43.6729 49.3355C44.1887 49.3355 44.7046 49.3355 45.2204 49.3355L45.337 49.339Z" fill="white"/>
<path d="M50.3054 51.5896L49.998 49.3391H51.6586C51.6856 49.338 51.7126 49.3429 51.7376 49.3532C51.7626 49.3636 51.7851 49.3793 51.8034 49.3992C52.1818 50.0667 52.3859 50.8188 52.397 51.5861L50.3054 51.5896Z" fill="white"/>
<path d="M45.627 54.2321H47.5701V56.4085C47.3138 56.3857 47.0689 56.2915 46.8635 56.1364C46.4325 55.7995 46.0964 55.3564 45.8884 54.8504C45.7895 54.6525 45.7153 54.4512 45.627 54.2321Z" fill="white"/>
<path d="M47.7617 56.4014V54.2321H49.7013C49.498 54.9549 49.0908 55.6037 48.5284 56.1011C48.3121 56.2816 48.0431 56.387 47.7617 56.4014Z" fill="white"/>
<path d="M47.5724 46.979V49.1518H45.6328C45.8363 48.4264 46.2463 47.7759 46.8128 47.2793C47.0299 47.1047 47.2947 47 47.5724 46.979Z" fill="white"/>
<path d="M47.7656 46.979C48.0997 47.0091 48.413 47.1539 48.6524 47.3888C49.0836 47.807 49.4093 48.3217 49.6028 48.8903C49.6346 48.9645 49.6593 49.0387 49.6841 49.1129C49.6841 49.1129 49.6841 49.1306 49.6841 49.1518H47.7656V46.979Z" fill="white"/>
<path d="M43.9141 47.0036C43.9134 47.1935 43.8565 47.3789 43.7505 47.5365C43.6445 47.6941 43.4941 47.8167 43.3185 47.8889C43.1428 47.9611 42.9497 47.9796 42.7635 47.9421C42.5773 47.9046 42.4065 47.8128 42.2724 47.6783C42.1384 47.5438 42.0472 47.3725 42.0104 47.1862C41.9736 46.9999 41.9928 46.8069 42.0657 46.6315C42.1385 46.4561 42.2617 46.3062 42.4196 46.2008C42.5776 46.0953 42.7632 46.039 42.9532 46.039C43.0797 46.039 43.2049 46.064 43.3217 46.1125C43.4386 46.161 43.5446 46.2322 43.6339 46.3218C43.7232 46.4114 43.7939 46.5177 43.842 46.6347C43.8901 46.7517 43.9146 46.8771 43.9141 47.0036Z" fill="white"/>
<path d="M53.339 47.0001C53.339 47.19 53.2827 47.3757 53.1772 47.5336C53.0718 47.6916 52.9219 47.8147 52.7465 47.8876C52.5711 47.9604 52.3781 47.9797 52.1918 47.9429C52.0055 47.9061 51.8342 47.8149 51.6997 47.6808C51.5652 47.5468 51.4734 47.3759 51.4359 47.1897C51.3984 47.0035 51.4169 46.8104 51.4891 46.6348C51.5613 46.4591 51.6839 46.3088 51.8415 46.2028C51.9991 46.0968 52.1845 46.0398 52.3744 46.0391C52.5012 46.0377 52.627 46.0616 52.7444 46.1093C52.8618 46.1571 52.9685 46.2277 53.0583 46.3172C53.1481 46.4067 53.2192 46.5131 53.2674 46.6304C53.3156 46.7476 53.3399 46.8733 53.339 47.0001Z" fill="white"/>
<path d="M53.339 56.3876C53.339 56.5776 53.2826 56.7634 53.177 56.9215C53.0714 57.0795 52.9213 57.2027 52.7457 57.2754C52.5701 57.3481 52.3769 57.3672 52.1905 57.3301C52.0041 57.293 51.8328 57.2015 51.6985 57.0671C51.5641 56.9327 51.4725 56.7615 51.4355 56.575C51.3984 56.3886 51.4174 56.1954 51.4901 56.0198C51.5629 55.8442 51.686 55.6941 51.8441 55.5885C52.0021 55.4829 52.1879 55.4266 52.378 55.4266C52.5043 55.4261 52.6295 55.4507 52.7463 55.4988C52.8631 55.5469 52.9692 55.6177 53.0585 55.707C53.1479 55.7963 53.2186 55.9025 53.2668 56.0193C53.3149 56.1361 53.3394 56.2612 53.339 56.3876Z" fill="white"/>
<path d="M43.9141 56.3833C43.9148 56.5733 43.8592 56.7593 43.7542 56.9177C43.6491 57.0762 43.4995 57.1999 43.3242 57.2733C43.1489 57.3466 42.9557 57.3664 42.7692 57.33C42.5826 57.2936 42.411 57.2027 42.2762 57.0688C42.1413 56.9349 42.0491 56.764 42.0113 56.5777C41.9736 56.3915 41.9919 56.1982 42.064 56.0223C42.1361 55.8464 42.2587 55.6959 42.4163 55.5897C42.574 55.4836 42.7596 55.4265 42.9496 55.4258C43.076 55.4249 43.2012 55.449 43.3182 55.4967C43.4352 55.5443 43.5416 55.6147 43.6312 55.7037C43.7209 55.7927 43.792 55.8986 43.8406 56.0152C43.8892 56.1318 43.9141 56.2569 43.9141 56.3833Z" fill="white"/>
<path d="M48.5449 56.3237C48.9379 56.0296 49.2562 55.6472 49.4741 55.2073C49.619 54.9247 49.7285 54.6279 49.8521 54.3382C49.8804 54.2675 49.9016 54.2216 49.9935 54.2216H51.5904H51.6328C51.3925 55.0095 49.6472 56.2071 48.5449 56.3237Z" fill="white"/>
<path d="M46.6643 56.3058C45.8022 56.2775 44.071 55.101 43.6895 54.2213H43.8696C44.3466 54.2213 44.8236 54.2213 45.3005 54.2213C45.3435 54.215 45.3872 54.2254 45.4226 54.2504C45.4581 54.2754 45.4827 54.313 45.4913 54.3555C45.6708 54.9337 45.9652 55.4696 46.3569 55.9313C46.4805 56.069 46.5901 56.2174 46.6643 56.3058Z" fill="white"/>
<path d="M46.6792 47.0706C46.5944 47.173 46.4707 47.325 46.3259 47.4734C45.9453 47.9259 45.6583 48.4495 45.4815 49.0138C45.478 49.0372 45.47 49.0597 45.4578 49.0801C45.4456 49.1004 45.4296 49.1181 45.4105 49.1322C45.3915 49.1463 45.3699 49.1565 45.3469 49.1623C45.3239 49.168 45.3 49.1692 45.2766 49.1657C44.7466 49.1657 44.2167 49.1657 43.6514 49.1657C43.9914 48.6327 44.4344 48.1729 44.9543 47.8132C45.4742 47.4535 46.0606 47.201 46.6792 47.0706Z" fill="white"/>
<path d="M51.6561 49.1623H50.3877C50.2287 49.1623 50.0344 49.2117 49.9214 49.1411C49.8083 49.0704 49.7906 48.869 49.7306 48.7242C49.5064 48.0947 49.1172 47.537 48.6035 47.1096C48.5854 47.102 48.5696 47.0898 48.5576 47.0743C49.1908 47.1881 49.7933 47.4325 50.3267 47.792C50.8602 48.1515 51.3129 48.6182 51.6561 49.1623Z" fill="white"/>
<path d="M51.4091 57.1398L51.5928 57.3377C50.4415 58.1443 49.0698 58.577 47.6641 58.577C46.2583 58.577 44.8867 58.1443 43.7354 57.3377L43.9261 57.1398C46.4169 58.6767 48.9006 58.6802 51.4091 57.1398Z" fill="white"/>
<path d="M53.32 55.5989L53.1362 55.3975C54.6272 52.9315 54.6072 50.469 53.0762 48.01L53.2705 47.8263C54.0767 48.9597 54.5139 50.314 54.5228 51.7048C54.5316 53.0956 54.1116 54.4554 53.32 55.5989Z" fill="white"/>
<path d="M42.2152 55.391L42.0067 55.5889C41.2174 54.4482 40.7978 53.0924 40.8048 51.7053C40.8117 50.3181 41.2449 48.9666 42.0456 47.8339L42.2682 48.0176C41.516 49.0976 41.1083 50.38 41.0989 51.6961C41.0894 53.0122 41.4786 54.3003 42.2152 55.391Z" fill="white"/>
<path d="M51.533 46.1096L51.3563 46.311C48.8832 44.8236 46.4454 44.8272 43.9758 46.311L43.8027 46.1132C44.9397 45.3307 46.2872 44.9115 47.6673 44.9109C49.0475 44.9103 50.3953 45.3283 51.533 46.1096Z" fill="white"/>
<path d="M59.1601 27.7483H59.4745C60.4708 27.7483 61.4672 27.7483 62.4599 27.7483C62.6175 27.7354 62.7749 27.7757 62.9068 27.8629C63.0387 27.95 63.1377 28.0788 63.1877 28.2288C63.6294 29.2569 64.0816 30.2815 64.5161 31.3131C64.5799 31.4746 64.6029 31.6493 64.5833 31.8219C64.442 33.2351 64.283 34.6483 64.1381 36.0615C64.0745 36.6621 63.8767 36.8564 63.2831 36.8564C62.9793 36.8564 62.6754 36.8564 62.3681 36.8564C62.3171 36.8499 62.2654 36.8616 62.2221 36.8894C62.1788 36.9172 62.1467 36.9593 62.1314 37.0083C62.004 37.2944 61.8087 37.545 61.5624 37.7383C61.3161 37.9317 61.0263 38.0619 60.7181 38.1177C60.3219 38.203 59.9081 38.1367 59.5582 37.932C59.2084 37.7274 58.9478 37.3991 58.828 37.0119C58.828 36.966 58.7962 36.92 58.775 36.86H58.5842C57.0897 36.86 55.5988 36.86 54.1043 36.86C54.0473 36.8531 53.9897 36.8662 53.9414 36.8972C53.893 36.9281 53.857 36.9749 53.8393 37.0295C53.7386 37.259 53.5925 37.4657 53.41 37.6374C53.2274 37.809 53.012 37.942 52.7768 38.0285C52.5416 38.1149 52.2914 38.153 52.0411 38.1404C51.7908 38.1278 51.5457 38.0648 51.3203 37.9552C51.1168 37.8374 50.9388 37.6802 50.7968 37.4927C50.6549 37.3053 50.5518 37.0913 50.4936 36.8635H48.7271C48.6023 36.8704 48.4783 36.8406 48.3703 36.7778C48.2623 36.715 48.1751 36.622 48.1194 36.5102C48.0682 36.4152 48.0417 36.3088 48.0424 36.2009C48.0431 36.093 48.071 35.987 48.1234 35.8927C48.1759 35.7984 48.2512 35.7187 48.3425 35.6612C48.4338 35.6036 48.5381 35.57 48.6458 35.5633C48.8648 35.5633 49.0839 35.5633 49.3029 35.5633C49.4753 35.5633 49.6407 35.4949 49.7626 35.3729C49.8845 35.251 49.953 35.0857 49.953 34.9133C49.953 34.7408 49.8845 34.5755 49.7626 34.4536C49.6407 34.3317 49.4753 34.2632 49.3029 34.2632C48.8966 34.2632 48.4903 34.2632 48.0876 34.2632C47.9152 34.2632 47.7498 34.1947 47.6279 34.0728C47.506 33.9509 47.4375 33.7855 47.4375 33.6131C47.4375 33.4407 47.506 33.2753 47.6279 33.1534C47.7498 33.0315 47.9152 32.963 48.0876 32.963H53.0868C53.1962 32.97 53.3056 32.9491 53.4046 32.9022C53.5037 32.8553 53.5892 32.784 53.6531 32.695C53.7171 32.606 53.7573 32.5021 53.7701 32.3933C53.7829 32.2844 53.7678 32.1741 53.7263 32.0727C53.679 31.9462 53.5924 31.8381 53.4792 31.7644C53.3661 31.6907 53.2323 31.6551 53.0974 31.6629H50.6243C50.5109 31.6651 50.399 31.6374 50.2997 31.5827C50.2004 31.528 50.1172 31.4482 50.0585 31.3512C49.9999 31.2542 49.9677 31.1435 49.9653 31.0301C49.9629 30.9168 49.9903 30.8048 50.0449 30.7054C50.0999 30.593 50.1869 30.4995 50.2951 30.4366C50.4033 30.3737 50.5277 30.3443 50.6526 30.3521H54.9735C55.0645 30.3616 55.1566 30.3519 55.2436 30.3236C55.3307 30.2952 55.4108 30.2489 55.4788 30.1876C55.5469 30.1263 55.6012 30.0514 55.6385 29.9678C55.6757 29.8841 55.6949 29.7936 55.6949 29.702C55.6949 29.6105 55.6757 29.52 55.6385 29.4363C55.6012 29.3527 55.5469 29.2778 55.4788 29.2165C55.4108 29.1552 55.3307 29.1089 55.2436 29.0805C55.1566 29.0522 55.0645 29.0425 54.9735 29.052H48.826C48.7344 29.0626 48.642 29.0626 48.5504 29.052C48.3958 29.015 48.2602 28.9227 48.169 28.7925C48.0779 28.6623 48.0376 28.5032 48.0558 28.3454C48.0733 28.1867 48.1492 28.0403 48.2687 27.9345C48.3882 27.8287 48.5428 27.7712 48.7023 27.773H52.4438C52.6699 27.773 52.896 27.773 53.1221 27.773C53.2945 27.773 53.4599 27.7045 53.5818 27.5826C53.7037 27.4607 53.7722 27.2953 53.7722 27.1229C53.7722 26.9505 53.7037 26.7852 53.5818 26.6633C53.4599 26.5413 53.2945 26.4729 53.1221 26.4729C52.0799 26.4729 51.0412 26.4729 49.9989 26.4729C49.8898 26.4766 49.7815 26.4526 49.6842 26.4032C49.5868 26.3537 49.5036 26.2804 49.4422 26.1901C49.3808 26.0998 49.3433 25.9955 49.3332 25.8867C49.323 25.778 49.3406 25.6685 49.3842 25.5684C49.4219 25.4497 49.4949 25.3453 49.5933 25.2689C49.6917 25.1926 49.811 25.1479 49.9354 25.1409C49.9954 25.1374 50.0555 25.1374 50.1155 25.1409H58.616C59.1813 25.1409 59.4286 25.4165 59.3721 25.9959C59.3155 26.5753 59.2272 27.1441 59.1601 27.7483ZM63.3079 32.2988C63.3434 32.0966 63.3434 31.8898 63.3079 31.6876C62.9546 30.8362 62.5765 29.9988 62.1985 29.158C62.1848 29.1309 62.1648 29.1074 62.1402 29.0896C62.1156 29.0718 62.0872 29.0601 62.0572 29.0555C61.5873 29.0555 61.1138 29.0555 60.644 29.0555C60.491 29.0586 60.3447 29.1186 60.2337 29.2238C60.1226 29.329 60.0547 29.4718 60.0433 29.6243C59.9656 30.2815 59.8914 30.9386 59.8278 31.5957C59.8159 31.6825 59.8223 31.7707 59.8468 31.8548C59.8713 31.9388 59.9133 32.0167 59.97 32.0834C60.0267 32.1501 60.0969 32.2041 60.1759 32.2419C60.2549 32.2796 60.3409 32.3002 60.4284 32.3024C61.3576 32.3059 62.2974 32.2988 63.3079 32.2988ZM52.8077 36.0615C52.8077 35.74 52.6099 35.5139 52.3519 35.5563C52.1506 35.5998 51.9734 35.7181 51.856 35.8873C51.7386 36.0565 51.6898 36.264 51.7195 36.4678C51.72 36.5347 51.7373 36.6003 51.77 36.6587C51.8027 36.717 51.8496 36.7661 51.9064 36.8014C51.9633 36.8367 52.0281 36.857 52.0949 36.8605C52.1616 36.8639 52.2282 36.8504 52.2883 36.8211C52.4421 36.7627 52.5743 36.6585 52.6672 36.5228C52.76 36.387 52.8091 36.226 52.8077 36.0615ZM59.9939 36.3583C59.9939 36.6586 60.1882 36.8741 60.4284 36.8458C60.5353 36.8249 60.6368 36.7827 60.727 36.7218C60.8172 36.6609 60.8943 36.5824 60.9536 36.4912C61.0129 36.3999 61.0533 36.2976 61.0723 36.1904C61.0914 36.0832 61.0887 35.9733 61.0644 35.8672C61.0542 35.8096 61.0308 35.7551 60.9962 35.708C60.9616 35.6608 60.9166 35.6223 60.8647 35.5953C60.8128 35.5683 60.7553 35.5536 60.6968 35.5524C60.6384 35.5511 60.5804 35.5633 60.5274 35.5881C60.3667 35.6421 60.2273 35.7458 60.1295 35.8843C60.0317 36.0227 59.9805 36.1888 59.9833 36.3583H59.9939Z" fill="white"/>
<path d="M47.7318 31.6489H47.3785C47.2129 31.6399 47.057 31.5679 46.9427 31.4477C46.8284 31.3275 46.7644 31.1682 46.7637 31.0024C46.7617 30.836 46.8242 30.6753 46.9382 30.554C47.0522 30.4328 47.2087 30.3605 47.3749 30.3523C47.6046 30.3523 47.8378 30.3523 48.0815 30.3523C48.253 30.3523 48.4175 30.4204 48.5387 30.5416C48.66 30.6629 48.7281 30.8273 48.7281 30.9988C48.7281 31.1703 48.66 31.3347 48.5387 31.456C48.4175 31.5772 48.253 31.6454 48.0815 31.6454C47.972 31.6524 47.8519 31.6489 47.7318 31.6489Z" fill="white"/>
<path d="M38.1498 13.2031C38.1807 13.2269 38.2186 13.2398 38.2576 13.2398C38.2966 13.2398 38.3344 13.2269 38.3653 13.2031C38.9977 12.8498 39.6337 12.4683 40.2696 12.1008L40.7113 11.8429L39.6054 11.2035L34.6309 8.32757H34.5179L32.5146 9.49347L32.6242 9.57119C34.4684 10.7842 36.3103 11.9949 38.1498 13.2031Z" fill="white"/>
<path d="M34.2914 15.6756L28.3878 12.2697L28.2535 12.2026C28.2535 12.2627 28.2535 12.3051 28.2535 12.3475V19.0637C28.2472 19.1247 28.2602 19.1862 28.2906 19.2394C28.321 19.2926 28.3674 19.335 28.4231 19.3605L34.2491 22.7204L34.3868 22.7946C34.3868 22.7381 34.3868 22.6992 34.3868 22.6568C34.3868 20.3851 34.3868 18.1098 34.3868 15.8381C34.3879 15.8048 34.3795 15.7718 34.3626 15.743C34.3458 15.7143 34.3211 15.6909 34.2914 15.6756Z" fill="white"/>
<path d="M40.9055 12.3301C40.9055 12.2842 40.9055 12.2418 40.9055 12.1923L40.8454 12.2135C40.0681 12.6587 39.2944 13.1039 38.5242 13.5561C38.502 13.5736 38.4836 13.5954 38.4702 13.6204C38.4568 13.6453 38.4487 13.6727 38.4465 13.7009C38.4465 14.0295 38.4465 14.3546 38.4288 14.6831C38.4328 14.7298 38.4232 14.7765 38.4013 14.8179C38.3793 14.8592 38.346 14.8934 38.3052 14.9163C37.9024 15.1459 37.5032 15.3827 37.0969 15.6229C37.0625 15.6385 37.0251 15.6466 36.9873 15.6466C36.9496 15.6466 36.9122 15.6385 36.8778 15.6229C36.8269 15.5641 36.7992 15.4887 36.8001 15.4109C36.8001 15.1353 36.8001 14.8598 36.8001 14.5701L36.6623 14.6407C36.0758 14.994 35.4929 15.3191 34.8958 15.6547C34.8524 15.6751 34.8164 15.7085 34.793 15.7503C34.7696 15.7921 34.7598 15.8402 34.7651 15.8879C34.7651 18.142 34.7651 20.396 34.7651 22.6501V22.8126C34.7911 22.8038 34.816 22.7919 34.8393 22.7773L40.7642 19.3608C40.8135 19.3333 40.8536 19.2918 40.8794 19.2415C40.9052 19.1912 40.9155 19.1344 40.909 19.0782C40.9067 16.8218 40.9055 14.5724 40.9055 12.3301Z" fill="white"/>
<path d="M36.6166 14.2131L36.5636 14.1672C34.6958 12.9424 32.8292 11.7164 30.9638 10.4893C30.9387 10.4692 30.9075 10.4583 30.8754 10.4583C30.8433 10.4583 30.8122 10.4692 30.7871 10.4893L29.0206 11.5103L28.4482 11.8424L28.5366 11.906L34.4862 15.3401C34.5157 15.3625 34.5516 15.3746 34.5886 15.3746C34.6256 15.3746 34.6616 15.3625 34.6911 15.3401L36.4965 14.2802L36.6166 14.2131Z" fill="white"/>
<path d="M36.9436 13.9731C37.0185 14.0117 37.0798 14.0724 37.119 14.147C37.1582 14.2216 37.1734 14.3064 37.1626 14.39C37.145 14.6303 37.1626 14.874 37.1626 15.1425C37.4418 14.98 37.6961 14.8316 37.954 14.6868C37.9865 14.6731 38.0134 14.649 38.0307 14.6183C38.048 14.5876 38.0546 14.552 38.0494 14.5172C38.0494 14.2593 38.0494 13.9978 38.0494 13.7364C38.0549 13.6905 38.0463 13.644 38.0249 13.603C38.0034 13.562 37.9701 13.5285 37.9293 13.5068C37.0531 12.9379 36.1628 12.3621 35.3043 11.7897L32.2411 9.77941C32.1811 9.74055 32.1352 9.69816 32.0539 9.75115C31.7854 9.91367 31.5133 10.0656 31.2236 10.2316L31.3967 10.3482C33.2598 11.5565 35.1088 12.7648 36.9436 13.9731Z" fill="white"/>
<path d="M29.751 17.4003L30.1043 17.1812C30.1432 17.1565 30.1926 17.1459 30.235 17.1212C30.2453 17.1144 30.2541 17.1056 30.2608 17.0953C30.2675 17.0849 30.272 17.0733 30.2739 17.0611C30.2739 16.8315 30.2739 16.5983 30.2739 16.3545C30.2727 16.3301 30.264 16.3067 30.2492 16.2874C30.1679 16.1814 30.0831 16.0789 30.0054 15.9729C29.9865 15.9432 29.9755 15.9092 29.9736 15.874C29.9736 15.6974 29.9736 15.5207 29.9736 15.3476C29.9768 15.3308 29.9735 15.3134 29.9643 15.2989C29.9551 15.2845 29.9407 15.2741 29.9241 15.2699C29.8609 15.2464 29.8066 15.2039 29.7686 15.1482C29.7306 15.0925 29.7109 15.0264 29.7122 14.959C29.706 14.8894 29.7226 14.8197 29.7596 14.7604C29.7966 14.7011 29.8519 14.6555 29.9171 14.6304C29.9789 14.5988 30.0491 14.5876 30.1176 14.5984C30.1862 14.6092 30.2495 14.6414 30.2986 14.6905C30.3397 14.7297 30.3707 14.7784 30.389 14.8322C30.4072 14.886 30.4123 14.9435 30.4036 14.9996C30.3949 15.0558 30.3728 15.1091 30.3392 15.1549C30.3055 15.2007 30.2613 15.2377 30.2103 15.2628C30.1898 15.2693 30.1722 15.2827 30.1606 15.3008C30.149 15.3188 30.1441 15.3404 30.1467 15.3617C30.1467 15.5101 30.1467 15.6585 30.1467 15.8104C30.1494 15.8498 30.1628 15.8877 30.1856 15.9199C30.2527 16.0153 30.3269 16.1072 30.4011 16.1991C30.4343 16.2372 30.4519 16.2863 30.4506 16.3368C30.4506 16.5488 30.4506 16.7573 30.4506 16.9657V17.0399C30.6734 16.9986 30.9026 17.007 31.1218 17.0646C31.1218 17.0399 31.1218 17.0187 31.1218 16.9975C31.1218 16.7643 31.1218 16.5276 31.1218 16.2909C31.1221 16.2385 31.1395 16.1877 31.1713 16.1461C31.3091 15.9765 31.4398 15.7928 31.5705 15.6302C31.5886 15.607 31.5985 15.5784 31.5988 15.549C31.5988 15.4854 31.5988 15.4218 31.5988 15.3617C31.6032 15.3407 31.5994 15.3188 31.5883 15.3004C31.5771 15.2821 31.5594 15.2686 31.5387 15.2628C31.4769 15.2214 31.4297 15.1616 31.4039 15.0919C31.3781 15.0221 31.3749 14.946 31.3949 14.8743C31.4149 14.8027 31.4569 14.7392 31.5151 14.6928C31.5733 14.6465 31.6446 14.6197 31.7189 14.6163C31.795 14.6252 31.8662 14.6586 31.9216 14.7115C31.977 14.7644 32.0138 14.8339 32.0263 14.9095C32.0377 14.984 32.025 15.0601 31.99 15.1269C31.9551 15.1936 31.8997 15.2474 31.832 15.2805C31.8206 15.283 31.8098 15.2877 31.8002 15.2944C31.7907 15.3011 31.7826 15.3096 31.7763 15.3195C31.7701 15.3293 31.7659 15.3403 31.7639 15.3518C31.7619 15.3633 31.7622 15.3751 31.7648 15.3865C31.7804 15.4823 31.7721 15.5804 31.7407 15.6722C31.7093 15.7641 31.6557 15.8467 31.5847 15.9129C31.4917 16.0189 31.4045 16.1298 31.3232 16.245C31.3045 16.2709 31.2935 16.3015 31.2914 16.3333C31.2914 16.5877 31.2914 16.8421 31.2914 17.0964C31.2896 17.1104 31.292 17.1246 31.2983 17.1372C31.3046 17.1498 31.3145 17.1602 31.3268 17.1671C31.4469 17.2413 31.5599 17.319 31.6801 17.3968H31.7048C31.7507 17.3438 31.7966 17.2943 31.839 17.2413C31.8814 17.1883 31.9486 17.1035 32.0086 17.0399C32.0266 17.0228 32.0404 17.0018 32.0489 16.9785C32.0575 16.9553 32.0606 16.9303 32.0581 16.9057C32.0581 16.8209 32.0581 16.7325 32.0581 16.6478C32.0602 16.6328 32.0567 16.6177 32.0482 16.6052C32.0397 16.5928 32.0268 16.584 32.0122 16.5806C31.9471 16.5563 31.8914 16.5122 31.8527 16.4545C31.8141 16.3968 31.7945 16.3285 31.7966 16.2591C31.7928 16.1876 31.8125 16.1167 31.8527 16.0574C31.8929 15.9981 31.9514 15.9536 32.0192 15.9305C32.1002 15.9089 32.1863 15.9168 32.262 15.9528C32.3377 15.9887 32.3982 16.0505 32.4326 16.1269C32.467 16.2034 32.4731 16.2895 32.4498 16.3701C32.4265 16.4506 32.3753 16.5202 32.3054 16.5665C32.2807 16.5732 32.2594 16.5888 32.2457 16.6104C32.232 16.632 32.2268 16.6579 32.2312 16.6831C32.2383 16.7819 32.2383 16.8811 32.2312 16.9799C32.227 17.0261 32.2098 17.0701 32.1817 17.107C32.0793 17.2378 31.9662 17.365 31.8567 17.4921C31.832 17.5204 31.8284 17.5381 31.8567 17.5699C32.0139 17.7728 32.1128 18.0147 32.1428 18.2697C32.1728 18.5246 32.1329 18.7829 32.0272 19.0168C31.9216 19.2507 31.7542 19.4514 31.5431 19.5974C31.332 19.7434 31.0851 19.8292 30.8289 19.8454C30.5727 19.8617 30.317 19.8079 30.0891 19.6898C29.8612 19.5717 29.6698 19.3938 29.5353 19.1751C29.4009 18.9564 29.3286 18.7053 29.3262 18.4486C29.3237 18.192 29.3912 17.9395 29.5214 17.7183C29.549 17.6674 29.5809 17.6189 29.6168 17.5734C29.6227 17.5684 29.6275 17.5622 29.6308 17.5552C29.634 17.5482 29.6357 17.5405 29.6357 17.5328C29.6357 17.525 29.634 17.5174 29.6308 17.5104C29.6275 17.5033 29.6227 17.4971 29.6168 17.4921C29.5072 17.3685 29.4012 17.2378 29.2882 17.1141C29.2533 17.074 29.2344 17.0224 29.2352 16.9693C29.2352 16.7608 29.2352 16.5524 29.2352 16.3404C29.2376 16.3227 29.2336 16.3048 29.2238 16.2899C29.2141 16.275 29.1993 16.264 29.1822 16.2591C29.0986 16.2225 29.0325 16.155 28.9976 16.0707C28.9627 15.9864 28.9617 15.8919 28.995 15.8069C29.0165 15.7523 29.0513 15.7039 29.0963 15.6661C29.1412 15.6283 29.1949 15.6023 29.2524 15.5905C29.3099 15.5786 29.3695 15.5813 29.4257 15.5983C29.4819 15.6153 29.533 15.646 29.5744 15.6877C29.6158 15.7294 29.6461 15.7807 29.6626 15.837C29.6792 15.8934 29.6814 15.953 29.6691 16.0104C29.6568 16.0678 29.6304 16.1213 29.5923 16.1659C29.5542 16.2106 29.5055 16.2451 29.4507 16.2662C29.437 16.2696 29.425 16.278 29.4171 16.2897C29.4093 16.3015 29.4061 16.3158 29.4083 16.3298V16.941C29.403 16.9595 29.403 16.9791 29.4083 16.9975C29.5284 17.1424 29.6415 17.2731 29.751 17.4003ZM31.9662 18.439C31.9662 18.1946 31.8938 17.9556 31.7581 17.7524C31.6224 17.5491 31.4294 17.3906 31.2037 17.2969C30.9779 17.2032 30.7295 17.1785 30.4897 17.2259C30.2499 17.2734 30.0296 17.3908 29.8565 17.5634C29.6835 17.736 29.5654 17.956 29.5173 18.1956C29.4692 18.4352 29.4932 18.6838 29.5862 18.9098C29.6793 19.1358 29.8372 19.3291 30.0401 19.4654C30.243 19.6017 30.4817 19.6749 30.7261 19.6756C31.0544 19.6756 31.3693 19.5454 31.6018 19.3136C31.8342 19.0818 31.9653 18.7673 31.9662 18.439ZM29.8782 14.9696C29.8787 14.9928 29.8837 15.0156 29.893 15.0369C29.9023 15.0582 29.9157 15.0774 29.9324 15.0935C29.9492 15.1095 29.9689 15.1222 29.9905 15.1306C30.0121 15.139 30.0352 15.1432 30.0584 15.1427C30.1043 15.1409 30.1479 15.1216 30.1801 15.0888C30.2122 15.0559 30.2306 15.012 30.2315 14.966C30.2315 14.9192 30.2129 14.8742 30.1798 14.8411C30.1466 14.808 30.1017 14.7894 30.0549 14.7894C30.008 14.7894 29.9631 14.808 29.9299 14.8411C29.8968 14.8742 29.8782 14.9192 29.8782 14.966V14.9696ZM29.4931 15.9517C29.4931 15.9049 29.4745 15.86 29.4414 15.8268C29.4082 15.7937 29.3633 15.7751 29.3165 15.7751C29.2696 15.7751 29.2247 15.7937 29.1915 15.8268C29.1584 15.86 29.1398 15.9049 29.1398 15.9517C29.1398 15.9986 29.1584 16.0435 29.1915 16.0767C29.2247 16.1098 29.2696 16.1284 29.3165 16.1284C29.3633 16.1284 29.4082 16.1098 29.4414 16.0767C29.4745 16.0435 29.4931 15.9986 29.4931 15.9517ZM31.5069 14.9696C31.5065 14.9926 31.5106 15.0155 31.5191 15.0369C31.5276 15.0583 31.5403 15.0778 31.5564 15.0943C31.5725 15.1107 31.5917 15.1238 31.613 15.1327C31.6342 15.1416 31.657 15.1462 31.6801 15.1462C31.7272 15.1462 31.7725 15.1277 31.8062 15.0947C31.8399 15.0617 31.8593 15.0167 31.8602 14.9696C31.8602 14.9227 31.8416 14.8778 31.8085 14.8447C31.7754 14.8115 31.7304 14.7929 31.6836 14.7929C31.6601 14.7919 31.6367 14.7958 31.6148 14.8043C31.5929 14.8128 31.5731 14.8258 31.5565 14.8424C31.5398 14.859 31.5269 14.8789 31.5183 14.9008C31.5098 14.9227 31.5059 14.9461 31.5069 14.9696ZM31.9662 16.2662C31.9653 16.2894 31.9689 16.3125 31.9769 16.3343C31.9849 16.3561 31.9972 16.3761 32.0129 16.3932C32.0287 16.4103 32.0476 16.4241 32.0687 16.4338C32.0898 16.4435 32.1126 16.449 32.1358 16.4499C32.1827 16.4499 32.2276 16.4313 32.2607 16.3982C32.2938 16.365 32.3125 16.3201 32.3125 16.2733C32.3125 16.2264 32.2938 16.1815 32.2607 16.1483C32.2276 16.1152 32.1827 16.0966 32.1358 16.0966C32.0925 16.0982 32.0514 16.1156 32.0201 16.1456C31.9888 16.1756 31.9697 16.216 31.9662 16.2591V16.2662Z" fill="#1C33FF"/>
<path d="M30.6591 17.796V17.6652C30.6591 17.6418 30.6684 17.6193 30.6849 17.6028C30.7015 17.5862 30.724 17.5769 30.7474 17.5769C30.7708 17.5769 30.7933 17.5862 30.8098 17.6028C30.8264 17.6193 30.8357 17.6418 30.8357 17.6652C30.8357 17.7041 30.8357 17.743 30.8357 17.7818C30.8357 17.7818 30.9417 17.7818 31.0018 17.7818C31.0799 17.7828 31.1544 17.8144 31.2093 17.87C31.2642 17.9255 31.295 18.0005 31.295 18.0786C31.295 18.1387 31.2667 18.1775 31.2173 18.1775C31.2061 18.179 31.1948 18.1783 31.1839 18.1753C31.1731 18.1724 31.1629 18.1673 31.154 18.1604C31.1452 18.1535 31.1378 18.1449 31.1322 18.1351C31.1267 18.1253 31.1232 18.1145 31.1219 18.1033C31.1219 18.1033 31.1219 18.068 31.1219 18.0503C31.1183 18.0225 31.1043 17.9972 31.0826 17.9794C31.0609 17.9617 31.0332 17.9529 31.0053 17.9549H30.4753C30.4469 17.953 30.4187 17.9622 30.3969 17.9807C30.3751 17.9992 30.3614 18.0254 30.3588 18.0539C30.357 18.0798 30.357 18.1057 30.3588 18.1316C30.3588 18.3294 30.3588 18.5273 30.3588 18.7251C30.3588 18.8559 30.3976 18.8912 30.5283 18.8912H30.9841C31.0795 18.8912 31.1078 18.8665 31.1289 18.7711C31.1269 18.7582 31.1269 18.7451 31.1289 18.7322C31.1347 18.7129 31.1471 18.6963 31.1639 18.6853C31.1808 18.6743 31.201 18.6696 31.221 18.6722C31.241 18.6747 31.2594 18.6843 31.273 18.6992C31.2865 18.7141 31.2943 18.7333 31.295 18.7534C31.2974 18.793 31.2918 18.8326 31.2786 18.87C31.2655 18.9073 31.2449 18.9417 31.2183 18.971C31.1916 19.0003 31.1593 19.024 31.1233 19.0406C31.0874 19.0572 31.0484 19.0665 31.0088 19.0678H30.864C30.8334 19.0678 30.8192 19.082 30.8216 19.1102C30.8233 19.1432 30.8233 19.1762 30.8216 19.2092C30.8216 19.2317 30.8126 19.2532 30.7967 19.2691C30.7808 19.285 30.7593 19.294 30.7368 19.294C30.7155 19.2922 30.6958 19.2825 30.6813 19.2668C30.6669 19.251 30.659 19.2305 30.6591 19.2092C30.6574 19.2034 30.6574 19.1973 30.6591 19.1915C30.6591 19.0678 30.6591 19.0608 30.5354 19.0678C30.4874 19.075 30.4383 19.0708 30.3922 19.0556C30.346 19.0403 30.3041 19.0145 30.2698 18.9802C30.2354 18.9458 30.2096 18.9039 30.1944 18.8578C30.1792 18.8116 30.1749 18.7626 30.1821 18.7145C30.1821 18.5096 30.1821 18.3047 30.1821 18.1033C30.1791 18.0205 30.2054 17.9392 30.2563 17.8737C30.2797 17.8431 30.3096 17.818 30.3438 17.8003C30.378 17.7826 30.4157 17.7727 30.4541 17.7712C30.5036 17.796 30.5672 17.796 30.6591 17.796Z" fill="#1C33FF"/>
<path d="M35.9974 18.6047C36.1211 18.527 36.2306 18.4528 36.3507 18.3856C36.3931 18.3609 36.4426 18.3468 36.4814 18.322C36.4927 18.3169 36.5024 18.309 36.5098 18.2992C36.5172 18.2893 36.522 18.2777 36.5238 18.2655C36.5238 18.0323 36.5238 17.8027 36.5238 17.5589C36.5227 17.5334 36.5141 17.5089 36.4991 17.4882C36.4214 17.3858 36.3366 17.2833 36.2589 17.1773C36.2369 17.1476 36.2245 17.1119 36.2235 17.0749C36.2235 16.9018 36.2235 16.7216 36.2235 16.552C36.226 16.5353 36.2223 16.5182 36.2132 16.504C36.2041 16.4897 36.1902 16.4792 36.1741 16.4743C36.1124 16.4462 36.0601 16.4009 36.0234 16.3439C35.9868 16.2869 35.9672 16.2205 35.9672 16.1528C35.9672 16.085 35.9868 16.0186 36.0234 15.9616C36.0601 15.9046 36.1124 15.8594 36.1741 15.8313C36.2371 15.8024 36.3072 15.7927 36.3757 15.8034C36.4441 15.8141 36.508 15.8446 36.5592 15.8913C36.601 15.9306 36.6326 15.9794 36.6514 16.0336C36.6701 16.0879 36.6753 16.1458 36.6666 16.2025C36.6579 16.2592 36.6356 16.3129 36.6015 16.3591C36.5673 16.4052 36.5225 16.4423 36.4709 16.4672C36.4214 16.4884 36.4037 16.5096 36.4072 16.5626C36.4072 16.7145 36.4072 16.8629 36.4072 17.0113C36.4077 17.0505 36.42 17.0887 36.4426 17.1208C36.5132 17.2162 36.5874 17.3116 36.6616 17.4035C36.6924 17.4427 36.7087 17.4914 36.7076 17.5412C36.7076 17.7497 36.7076 17.9617 36.7076 18.1701V18.2443C36.9291 18.2012 37.1576 18.2096 37.3753 18.269C37.3769 18.2467 37.3769 18.2243 37.3753 18.2019V17.4953C37.3737 17.4437 37.3913 17.3934 37.4248 17.354C37.559 17.1844 37.6933 17.0007 37.824 16.8382C37.8407 16.8129 37.8504 16.7836 37.8523 16.7534C37.8523 16.6933 37.8523 16.6297 37.8523 16.5697C37.8558 16.5478 37.8513 16.5254 37.8396 16.5065C37.8279 16.4877 37.8098 16.4737 37.7887 16.4672C37.7125 16.4318 37.6514 16.3703 37.6165 16.2939C37.5815 16.2175 37.5749 16.1311 37.5979 16.0503C37.6222 15.9708 37.6738 15.9023 37.7436 15.8571C37.8134 15.8119 37.8969 15.7927 37.9794 15.803C38.0549 15.8126 38.1252 15.8464 38.18 15.8992C38.2347 15.9521 38.271 16.0212 38.2833 16.0962C38.2908 16.1679 38.2762 16.2402 38.2415 16.3033C38.2068 16.3665 38.1535 16.4175 38.089 16.4495C38.036 16.4743 38.0148 16.5025 38.0254 16.5591C38.0412 16.6546 38.0327 16.7527 38.0006 16.8441C37.9684 16.9355 37.9138 17.0173 37.8417 17.082C37.7482 17.1949 37.6609 17.3129 37.5802 17.4353C37.561 17.4608 37.5499 17.4916 37.5484 17.5236C37.5484 17.778 37.5484 18.0323 37.5484 18.2867C37.5474 18.301 37.5505 18.3152 37.5574 18.3278C37.5643 18.3403 37.5747 18.3506 37.5873 18.3574L37.9406 18.587H37.9653L38.1031 18.428C38.1596 18.3644 38.2126 18.2938 38.2727 18.2302C38.2903 18.2121 38.3038 18.1904 38.3124 18.1667C38.3209 18.1429 38.3242 18.1176 38.3222 18.0924C38.3222 18.0076 38.3222 17.9228 38.3222 17.838C38.3235 17.8232 38.3197 17.8084 38.3113 17.7962C38.3029 17.7839 38.2905 17.775 38.2762 17.7709C38.2123 17.7446 38.1574 17.7002 38.1185 17.643C38.0795 17.5859 38.0582 17.5185 38.0572 17.4494C38.0564 17.378 38.0772 17.3081 38.117 17.2488C38.1567 17.1895 38.2135 17.1437 38.2798 17.1173C38.3647 17.0841 38.4593 17.085 38.5436 17.1199C38.6278 17.1548 38.6954 17.221 38.732 17.3045C38.7667 17.3869 38.7688 17.4794 38.738 17.5633C38.7072 17.6473 38.6457 17.7164 38.5659 17.7568C38.5415 17.7634 38.5205 17.7792 38.5073 17.8009C38.4942 17.8226 38.4898 17.8486 38.4953 17.8733C38.5006 17.9722 38.5006 18.0713 38.4953 18.1701C38.4913 18.2147 38.4754 18.2574 38.4493 18.2938C38.3433 18.4245 38.2338 18.5517 38.1208 18.6789C38.1148 18.6839 38.1101 18.6901 38.1068 18.6971C38.1035 18.7041 38.1018 18.7118 38.1018 18.7195C38.1018 18.7273 38.1035 18.7349 38.1068 18.7419C38.1101 18.7489 38.1148 18.7552 38.1208 18.7601C38.3014 18.9967 38.4028 19.2842 38.4104 19.5818C38.418 19.8793 38.3315 20.1717 38.1632 20.4171C37.9494 20.7015 37.6363 20.8948 37.2863 20.9585C36.9363 21.0222 36.5752 20.9515 36.275 20.7606C35.9748 20.5697 35.7577 20.2726 35.667 19.9287C35.5762 19.5847 35.6185 19.2191 35.7854 18.905C35.8139 18.8546 35.8458 18.8062 35.8808 18.7601C35.8867 18.7555 35.8915 18.7496 35.8947 18.7429C35.898 18.7361 35.8997 18.7288 35.8997 18.7213C35.8997 18.7138 35.898 18.7064 35.8947 18.6997C35.8915 18.6929 35.8867 18.687 35.8808 18.6824L35.5558 18.3008C35.5378 18.2821 35.5238 18.2599 35.5147 18.2356C35.5056 18.2113 35.5016 18.1854 35.5028 18.1595V17.5554C35.5052 17.5377 35.5011 17.5198 35.4914 17.5049C35.4817 17.49 35.4669 17.479 35.4498 17.4741C35.3749 17.433 35.3175 17.3661 35.2881 17.2859C35.2588 17.2057 35.2595 17.1176 35.2901 17.0379C35.3207 16.9581 35.3791 16.8922 35.4546 16.8522C35.5301 16.8123 35.6175 16.801 35.7006 16.8205C35.7855 16.8489 35.8564 16.9085 35.899 16.9872C35.9417 17.0659 35.9528 17.1579 35.9303 17.2445C35.9154 17.2971 35.8885 17.3455 35.8517 17.386C35.815 17.4265 35.7693 17.4578 35.7183 17.4776C35.7047 17.4824 35.6931 17.4916 35.6854 17.5038C35.6776 17.516 35.6743 17.5304 35.6759 17.5448C35.6759 17.7462 35.6759 17.9511 35.6759 18.156C35.6759 18.156 35.6759 18.1984 35.6759 18.209L35.9974 18.6047ZM38.2162 19.6434C38.2176 19.398 38.1461 19.1577 38.0109 18.9529C37.8756 18.7481 37.6826 18.5881 37.4564 18.493C37.2301 18.398 36.9807 18.3722 36.7398 18.419C36.4989 18.4657 36.2772 18.5829 36.103 18.7557C35.9287 18.9285 35.8096 19.1491 35.7608 19.3896C35.712 19.6301 35.7356 19.8797 35.8287 20.1068C35.9218 20.3339 36.0802 20.5282 36.2838 20.6652C36.4874 20.8022 36.7271 20.8757 36.9725 20.8764C37.3005 20.8764 37.6153 20.7469 37.8482 20.5159C38.0811 20.285 38.2134 19.9714 38.2162 19.6434ZM36.1246 16.1669C36.1246 16.2137 36.1432 16.2587 36.1764 16.2918C36.2095 16.3249 36.2544 16.3435 36.3013 16.3435C36.3481 16.3435 36.393 16.3249 36.4262 16.2918C36.4593 16.2587 36.4779 16.2137 36.4779 16.1669C36.4779 16.12 36.4593 16.0751 36.4262 16.042C36.393 16.0089 36.3481 15.9902 36.3013 15.9902C36.2544 15.9902 36.2095 16.0089 36.1764 16.042C36.1432 16.0751 36.1246 16.12 36.1246 16.1669ZM35.743 17.1526C35.743 17.1177 35.7327 17.0835 35.7133 17.0545C35.6939 17.0254 35.6663 17.0028 35.634 16.9894C35.6017 16.976 35.5662 16.9725 35.5319 16.9794C35.4977 16.9862 35.4662 17.003 35.4415 17.0277C35.4168 17.0524 35.3999 17.0839 35.3931 17.1182C35.3863 17.1524 35.3898 17.1879 35.4032 17.2202C35.4166 17.2525 35.4392 17.2801 35.4682 17.2995C35.4973 17.3189 35.5315 17.3293 35.5664 17.3293C35.6132 17.3293 35.6582 17.3107 35.6913 17.2775C35.7244 17.2444 35.743 17.1995 35.743 17.1526ZM37.7533 16.1634C37.7533 16.2102 37.7719 16.2551 37.8051 16.2883C37.8382 16.3214 37.8831 16.34 37.93 16.34C37.9768 16.34 38.0218 16.3214 38.0549 16.2883C38.088 16.2551 38.1066 16.2102 38.1066 16.1634C38.1066 16.1162 38.0881 16.0709 38.0551 16.0372C38.0221 16.0035 37.9772 15.9841 37.93 15.9832C37.9065 15.9832 37.8832 15.9879 37.8616 15.997C37.8399 16.0061 37.8203 16.0194 37.8038 16.0362C37.7874 16.0529 37.7744 16.0728 37.7658 16.0947C37.7571 16.1165 37.7529 16.1399 37.7533 16.1634ZM38.2126 17.4635C38.2126 17.5104 38.2312 17.5553 38.2644 17.5884C38.2975 17.6216 38.3424 17.6402 38.3893 17.6402C38.4361 17.6402 38.4811 17.6216 38.5142 17.5884C38.5473 17.5553 38.5659 17.5104 38.5659 17.4635C38.5659 17.4167 38.5473 17.3717 38.5142 17.3386C38.4811 17.3055 38.4361 17.2869 38.3893 17.2869C38.3424 17.2869 38.2975 17.3055 38.2644 17.3386C38.2312 17.3717 38.2126 17.4167 38.2126 17.4635Z" fill="#1C33FF"/>
<path d="M36.8904 18.9975C36.8904 18.948 36.8904 18.9092 36.8904 18.8668C36.8899 18.8547 36.8918 18.8427 36.896 18.8313C36.9002 18.82 36.9065 18.8096 36.9147 18.8008C36.9229 18.7919 36.9328 18.7847 36.9438 18.7797C36.9548 18.7747 36.9666 18.7718 36.9787 18.7714C37.0282 18.7714 37.0599 18.8102 37.0635 18.8703C37.067 18.9304 37.0635 18.948 37.0635 18.9869H37.2295C37.308 18.9887 37.3825 19.0212 37.4373 19.0773C37.4921 19.1334 37.5228 19.2088 37.5228 19.2872C37.5228 19.3437 37.4945 19.3826 37.445 19.3861C37.4339 19.3871 37.4227 19.3858 37.412 19.3825C37.4014 19.3791 37.3915 19.3736 37.3829 19.3664C37.3744 19.3592 37.3674 19.3503 37.3623 19.3404C37.3572 19.3304 37.3541 19.3195 37.3532 19.3084V19.2589C37.3505 19.2314 37.3372 19.2061 37.316 19.1883C37.2949 19.1704 37.2677 19.1616 37.2401 19.1635C37.0635 19.1635 36.8868 19.1635 36.7102 19.1635C36.696 19.1621 36.6816 19.1635 36.668 19.1677C36.6543 19.172 36.6417 19.1789 36.6308 19.1882C36.6199 19.1974 36.611 19.2087 36.6046 19.2215C36.5982 19.2343 36.5945 19.2482 36.5936 19.2625C36.5901 19.2871 36.5901 19.3121 36.5936 19.3367V19.9302C36.5936 20.0609 36.6324 20.0998 36.7632 20.0998H37.2189C37.3143 20.0998 37.3461 20.0751 37.3638 19.9797V19.9373C37.3696 19.9177 37.3823 19.9009 37.3995 19.89C37.4168 19.879 37.4374 19.8746 37.4575 19.8776C37.4777 19.8806 37.4962 19.8908 37.5094 19.9063C37.5227 19.9218 37.53 19.9416 37.5298 19.962C37.5322 20.0011 37.5268 20.0403 37.5137 20.0772C37.5007 20.1142 37.4805 20.1481 37.4541 20.1771C37.4278 20.2061 37.3959 20.2295 37.3604 20.2459C37.3248 20.2624 37.2863 20.2716 37.2472 20.2729H37.1023C37.067 20.2729 37.0564 20.2729 37.0564 20.3188C37.0599 20.3517 37.0599 20.3849 37.0564 20.4178C37.0524 20.4377 37.0415 20.4557 37.0258 20.4686C37.01 20.4815 36.9902 20.4885 36.9699 20.4885C36.9495 20.4885 36.9297 20.4815 36.914 20.4686C36.8982 20.4557 36.8873 20.4377 36.8833 20.4178C36.8833 20.2941 36.8833 20.287 36.7561 20.2976C36.7081 20.3048 36.659 20.3006 36.6129 20.2854C36.5667 20.2701 36.5248 20.2443 36.4905 20.21C36.4561 20.1756 36.4303 20.1337 36.4151 20.0876C36.3999 20.0414 36.3957 19.9924 36.4028 19.9443C36.4028 19.743 36.4028 19.538 36.4028 19.3331C36.3978 19.2516 36.4229 19.1711 36.4735 19.107C36.497 19.0758 36.5274 19.0503 36.5623 19.0326C36.5972 19.0148 36.6357 19.0052 36.6748 19.0046L36.8904 18.9975Z" fill="#1C33FF"/>
<path d="M35.0447 24.2225H33.9424V31.5041H35.0447V24.2225Z" fill="white"/>
<path d="M23.5151 32.5065L23.3086 33.5893L31.7695 35.2033L31.9761 34.1205L23.5151 32.5065Z" fill="white"/>
<path d="M33.2555 37.6565L27.6455 44.1926L28.482 44.9105L34.092 38.3744L33.2555 37.6565Z" fill="white"/>
<path d="M36.562 37.6671L35.7256 38.385L41.3356 44.9211L42.1721 44.2032L36.562 37.6671Z" fill="white"/>
<path d="M45.197 32.5065L36.7363 34.122L36.9431 35.2048L45.4037 33.5893L45.197 32.5065Z" fill="white"/>
<path d="M34.5754 43.9651C39.3735 43.9651 43.2631 40.0754 43.2631 35.2773C43.2631 30.4793 39.3735 26.5896 34.5754 26.5896C29.7773 26.5896 25.8877 30.4793 25.8877 35.2773C25.8877 40.0754 29.7773 43.9651 34.5754 43.9651Z" fill="white"/>
<path d="M33.7715 39.4145C33.8704 39.0612 33.9623 38.7079 34.0577 38.3899C34.093 38.2556 34.1142 38.1285 33.987 38.0366C33.8599 37.9447 33.7503 37.9942 33.6337 38.0613L30.9098 39.6335C30.6731 39.7713 30.6483 39.8702 30.7826 40.1069C31.2949 40.9973 31.8107 41.8735 32.323 42.7779C32.3901 42.898 32.4643 43.0005 32.6233 42.9793C32.7823 42.9581 32.8247 42.8344 32.86 42.7037L33.1391 41.6933C33.3723 41.7251 33.5949 41.7675 33.821 41.7922C34.8171 41.9179 35.8288 41.8153 36.7794 41.4921C37.7301 41.1689 38.5947 40.6336 39.3078 39.9268C40.149 39.1269 40.7592 38.1151 41.0743 36.9979C41.1697 36.6728 41.1273 36.6022 40.8058 36.5139L39.2583 36.097C38.9898 36.0228 38.905 36.0722 38.8202 36.3443C38.5356 37.3177 37.9224 38.1624 37.0849 38.7345C36.2475 39.3065 35.2376 39.5706 34.2273 39.4816C34.093 39.4639 33.9446 39.4392 33.7715 39.4145Z" fill="#DA251D"/>
<path d="M38.7649 33.6944L37.705 33.97C37.5778 34.0018 37.4754 34.0513 37.4542 34.1926C37.433 34.3339 37.5248 34.4222 37.6414 34.4893L40.3654 36.0615C40.6127 36.1993 40.7187 36.1746 40.8494 35.9273L42.3827 33.274L42.4145 33.2175C42.4486 33.1735 42.4671 33.1194 42.4671 33.0638C42.4671 33.0081 42.4486 32.9541 42.4145 32.9101C42.3784 32.8648 42.3286 32.8325 42.2726 32.8178C42.2166 32.8032 42.1573 32.807 42.1036 32.8288L41.0437 33.1009C40.8848 32.7476 40.754 32.3943 40.5738 32.041C40.0963 31.0874 39.395 30.2635 38.53 29.6397C37.6651 29.0159 36.662 28.6106 35.6064 28.4585C34.7233 28.3208 33.8213 28.3665 32.9566 28.5927C32.727 28.6493 32.6634 28.7553 32.7235 28.9814C32.8683 29.536 33.0167 30.0872 33.1651 30.6384C33.2251 30.8574 33.3241 30.9139 33.5502 30.8609C34.5415 30.6124 35.5885 30.7175 36.5107 31.1579C37.4329 31.5984 38.1726 32.3467 38.6024 33.274C38.6554 33.4012 38.7013 33.5354 38.7649 33.6944Z" fill="#DA251D"/>
<path d="M29.6872 30.515C29.2224 31.0332 28.8356 31.6164 28.539 32.2461C27.9566 33.4901 27.7677 34.8821 27.9975 36.2363C28.2273 37.5905 28.8648 38.8423 29.825 39.8245C29.8496 39.8609 29.8827 39.8908 29.9215 39.9114C29.9603 39.932 30.0036 39.9428 30.0476 39.9428C30.0915 39.9428 30.1348 39.932 30.1736 39.9114C30.2124 39.8908 30.2456 39.8609 30.2701 39.8245L31.4749 38.6197C31.6515 38.4431 31.648 38.3371 31.4749 38.1534C30.7382 37.3905 30.3035 36.3862 30.2515 35.327C30.1995 34.2679 30.5338 33.2258 31.1923 32.3945L31.3088 32.2532C31.5703 32.504 31.8247 32.7443 32.0755 32.9916C32.1709 33.087 32.2663 33.1612 32.4076 33.1082C32.5489 33.0552 32.5701 32.9315 32.5701 32.7973C32.5701 31.7397 32.5701 30.6798 32.5701 29.6176C32.5701 29.3703 32.4889 29.2855 32.238 29.2855H29.1042C28.97 29.2855 28.8499 29.3067 28.7933 29.448C28.773 29.5052 28.7723 29.5676 28.7915 29.6252C28.8107 29.6829 28.8487 29.7324 28.8993 29.766L29.6872 30.515Z" fill="#DA251D"/>
</svg>
